<?xml version="1.0" standalone="no"?>
<!DOCTYPE svg PUBLIC "-//W3C//DTD SVG 1.1//EN" "http://www.w3.org/Graphics/SVG/1.1/DTD/svg11.dtd" >
<!--
2013-9-30: Created.
-->
<svg>
<metadata>
Created by iconfont
</metadata>
<defs>

<font id="iconfont" horiz-adv-x="1024" >
  <font-face
    font-family="iconfont"
    font-weight="500"
    font-stretch="normal"
    units-per-em="1024"
    ascent="896"
    descent="-128"
  />
    <missing-glyph />
    
    <glyph glyph-name="x" unicode="x" horiz-adv-x="1001"
d="M281 543q-27 -1 -53 -1h-83q-18 0 -36.5 -6t-32.5 -18.5t-23 -32t-9 -45.5v-76h912v41q0 16 -0.5 30t-0.5 18q0 13 -5 29t-17 29.5t-31.5 22.5t-49.5 9h-133v-97h-438v97zM955 310v-52q0 -23 0.5 -52t0.5 -58t-10.5 -47.5t-26 -30t-33 -16t-31.5 -4.5q-14 -1 -29.5 -0.5
t-29.5 0.5h-32l-45 128h-439l-44 -128h-29h-34q-20 0 -45 1q-25 0 -41 9.5t-25.5 23t-13.5 29.5t-4 30v167h911zM163 247q-12 0 -21 -8.5t-9 -21.5t9 -21.5t21 -8.5q13 0 22 8.5t9 21.5t-9 21.5t-22 8.5zM316 123q-8 -26 -14 -48q-5 -19 -10.5 -37t-7.5 -25t-3 -15t1 -14.5
t9.5 -10.5t21.5 -4h37h67h81h80h64h36q23 0 34 12t2 38q-5 13 -9.5 30.5t-9.5 34.5q-5 19 -11 39h-368zM336 498v228q0 11 2.5 23t10 21.5t20.5 15.5t34 6h188q31 0 51.5 -14.5t20.5 -52.5v-227h-327z" />
    

    
    <glyph glyph-name="search" unicode="&#58892;" d="M997.51936-156.56064 695.3984 145.56032C759.37792 216.40064 798.72 309.89184 798.72 412.64 798.72 632.84096 619.56096 812 399.36 812S0 632.84096 0 412.64 179.15904 13.28 399.36 13.28c102.74816 0 196.23936 39.34208 267.07968 103.3216l302.12096-302.12096C972.55424-189.51296 977.79712-191.52 983.04-191.52s10.48576 2.00704 14.47936 6.00064C1005.52704-177.51168 1005.52704-164.56832 997.51936-156.56064zM399.36 54.24C201.74848 54.24 40.96 215.02848 40.96 412.64S201.74848 771.04 399.36 771.04 757.76 610.25152 757.76 412.64 596.97152 54.24 399.36 54.24z"  horiz-adv-x="1024" />

    
    <glyph glyph-name="copy" unicode="&#58911;" d="M917.862 437.504c-0.048 4.653-1.835 9.291-5.378 12.843l-128.898 147.843c-4.241 4.252-10.037 5.972-15.553 5.202h-421.398c-30.546 0-55.296-24.75-55.296-55.296v-663.552c0-30.536 24.75-55.296 55.296-55.296h516.096c30.529 0 55.296 24.76 55.296 55.296v552.96h-0.166zM770.572 557.213l104.374-119.708h-85.942c-10.188 0-18.432 8.253-18.432 18.432v101.276zM881.164-115.456c0-10.178-8.262-18.432-18.432-18.432h-516.096c-10.188 0-18.432 8.254-18.432 18.432v663.552c0 10.179 8.244 18.432 18.432 18.432h387.072v-110.592c0-30.537 24.75-55.296 55.296-55.296h92.16v-516.096zM143.884 68.864v626.688c0 10.179 8.244 18.432 18.432 18.432h423.936c10.17 0 18.432-8.253 18.432-18.432v-55.296h36.864v55.296c0 30.546-24.769 55.296-55.296 55.296h-423.936c-30.546 0-55.296-24.75-55.296-55.296v-626.688c0-30.536 24.75-55.296 55.296-55.296h92.16v36.864h-92.16c-10.188 0-18.432 8.253-18.432 18.432zM623.116 326.912h-36.864v-92.16h-92.16v-36.864h92.16v-92.16h36.864v92.16h92.16v36.864h-92.16v92.16z"  horiz-adv-x="1024" />

    
    <glyph glyph-name="biaoqing" unicode="&#58939;" d="M349.696 387.4496c29.866667 0 54.101333 24.200533 54.101333 54.0672 0 29.9008-24.200533 54.101333-54.101333 54.101333-29.9008 0-54.101333-24.200533-54.101333-54.101333C295.594667 411.650133 319.7952 387.4496 349.696 387.4496zM674.338133 387.4496c29.866667 0 54.135467 24.200533 54.135467 54.0672 0 29.9008-24.2688 54.101333-54.135467 54.101333s-54.101333-24.200533-54.101333-54.101333C620.2368 411.650133 644.471467 387.4496 674.338133 387.4496zM512 798.653867c-274.909867 0-497.7664-222.856533-497.7664-497.7664 0-274.875733 222.856533-497.7664 497.7664-497.7664s497.7664 222.890667 497.7664 497.7664C1009.800533 575.797333 786.944 798.653867 512 798.653867zM512-153.597867c-251.016533 0-454.485333 203.4688-454.485333 454.4512C57.514667 551.869867 260.983467 755.3728 512 755.3728s454.485333-203.4688 454.485333-454.485333C966.485333 49.870933 763.016533-153.597867 512-153.597867zM750.114133 300.853333c-11.9808 0-21.640533-9.659733-21.640533-21.640533 0-119.534933-96.904533-216.4736-216.439467-216.4736-119.5008 0-216.439467 96.938667-216.439467 216.4736 0 11.9808-9.693867 21.640533-21.640533 21.640533s-21.640533-9.659733-21.640533-21.640533c0-143.394133 116.292267-259.6864 259.720533-259.6864 143.428267 0 259.6864 116.292267 259.6864 259.6864C771.6864 291.1936 762.026667 300.853333 750.114133 300.853333z"  horiz-adv-x="1024" />

    
    <glyph glyph-name="infoparameter" unicode="&#58912;" d="M527.421736 633.11789l401.322271 0c16.606213 0 30.096459 13.461593 30.096459 30.098505 0 16.634866-13.491269 30.095435-30.096459 30.095435L527.421736 693.311831c-16.637935 0-30.098505-13.46057-30.098505-30.095435C497.323231 646.580506 510.783801 633.11789 527.421736 633.11789zM928.744008 446.506748 527.421736 446.506748c-16.637935 0-30.098505-13.461593-30.098505-30.098505 0-16.634866 13.46057-30.095435 30.098505-30.095435l401.322271 0c16.606213 0 30.096459 13.46057 30.096459 30.095435C958.840466 433.045155 945.349197 446.506748 928.744008 446.506748zM928.744008 220.215886 527.421736 220.215886c-16.637935 0-30.098505-13.462616-30.098505-30.097482 0-16.636912 13.46057-30.098505 30.098505-30.098505l401.322271 0c16.606213 0 30.096459 13.461593 30.096459 30.098505C958.840466 206.753269 945.349197 220.215886 928.744008 220.215886zM94.633822 160.019899l271.922133 0c16.621563 0 30.098505 13.461593 30.098505 30.098505 0 16.634866-13.476943 30.097482-30.098505 30.097482L94.633822 220.215886c-16.620539 0-30.097482-13.462616-30.097482-30.097482C64.53634 173.481492 78.013283 160.019899 94.633822 160.019899zM928.744008-32.38111 94.633822-32.38111c-16.620539 0-30.097482-13.461593-30.097482-30.098505 0-16.634866 13.476943-30.095435 30.097482-30.095435l834.109162 0c16.606213 0 30.096459 13.46057 30.096459 30.095435C958.840466-45.843726 945.349197-32.38111 928.744008-32.38111zM371.554806 603.020408c0 49.79101-40.502459 90.291422-90.293469 90.291422L154.828786 693.311831c-49.789986 0-90.292446-40.500413-90.292446-90.291422l0-216.7076 307.017442 0L371.553783 603.020408zM311.358819 446.506748 124.732327 446.506748 124.732327 603.020408c0 16.607236 13.504572 30.097482 30.096459 30.097482l126.431527 0c16.591887 0 30.098505-13.491269 30.098505-30.097482L311.358819 446.506748z"  horiz-adv-x="1024" />

    
    <glyph glyph-name="xialajiantou" unicode="&#58880;" d="M830.429257 629.2864 778.7136 681.000229 512 414.2848 245.2864 681.000229 193.570743 629.2864 512 310.857143ZM512 121.713371 245.2864 388.4288 193.570743 336.714971 512 18.285714 830.429257 336.714971 778.7136 388.4288Z"  horiz-adv-x="1024" />

    
    <glyph glyph-name="config" unicode="&#58900;" d="M951.040 382.362h-57.446l-0.358 0.819c-2.662-0.614-5.325-0.563-8.038-0.819h-8.96v-0.41c-14.234 0.819-27.853 6.502-38.042 16.691-11.059 11.059-17.101 25.754-17.101 41.472 0 14.438 5.683 27.75 15.104 38.451l0.41-0.41 9.728 9.728c0.922 0.666 1.638 1.434 2.662 2.048l-0.154 0.41 40.704 40.704c11.213 11.213 8.806 29.901-5.683 44.442l-83.456 83.405c-14.49 14.541-33.126 16.947-44.442 5.683l-40.704-40.602-0.819 0.307c-1.382-2.202-3.174-3.942-4.813-5.939l-6.605-6.656 0.358-0.358c-10.65-9.472-24.218-15.002-38.81-15.002-31.078 0-56.013 24.525-57.907 55.091h0.512v13.466c0.205 1.229 0.154 2.304 0.461 3.533l-0.461 0.205v57.6c0 15.872-14.899 27.392-35.43 27.392h-118.067c-20.531 0-35.43-11.52-35.43-27.392v-57.498l-0.768-0.358c0.563-2.458 0.512-4.915 0.768-7.322v-9.626h0.512c-0.768-14.182-6.451-27.699-16.742-38.042-21.197-21.197-57.446-21.453-79.923-1.997l0.358 0.358-9.574 9.574c-0.666 0.922-1.485 1.638-2.099 2.662l-0.41-0.154-40.704 40.704-8.96 7.168h-8.499c-0.051 0-0.102 0-0.154 0-9.011 0-18.79-4.659-26.931-12.8l-83.405-83.405c-14.541-14.49-16.947-33.229-5.786-44.39l40.653-40.653-0.307-0.87c2.253-1.331 3.994-3.174 5.99-4.762l6.656-6.656 0.358 0.358c9.472-10.598 15.002-24.166 15.002-38.758 0-31.078-24.474-56.627-55.091-58.266v0.87h-13.261c-1.28 0.205-2.458 0.154-3.738 0.41l-0.205-0.41h-57.6c-15.872 0-27.392-14.899-27.392-35.43v-117.965c0-20.531 11.571-35.482 27.392-35.482h57.446l0.358-0.768c2.611 0.614 5.222 0.563 7.834 0.768h9.165v0.41c14.234-0.819 27.853-6.451 38.042-16.64 21.965-22.016 22.221-56.883 1.997-79.923l-0.358 0.358-9.523-9.523c-0.973-0.666-1.741-1.536-2.714-2.15l0.154-0.461-40.704-40.704-7.168-8.909v-8.55c-0.051-9.011 4.659-18.893 12.8-27.085l83.405-83.405c8.448-8.397 18.227-12.749 27.187-12.749 6.451 0 12.493 2.304 17.254 7.014l40.653 40.704 0.87-0.307c1.382 2.253 3.226 4.045 4.864 6.042l6.502 6.502-0.358 0.358c10.547 9.523 24.166 15.053 38.758 15.053 31.078 0 55.962-24.474 57.907-55.040h-0.512v-13.875c-0.205-1.075-0.154-2.15-0.41-3.226l0.41-0.205v-57.549c0-15.872 14.899-27.392 35.43-27.392h118.016c20.531 0 35.43 11.571 35.43 27.392v57.446l0.768 0.358c-0.563 2.509-0.512 4.966-0.768 7.475v9.574h-0.512c0.819 14.182 6.451 27.699 16.794 37.99 21.197 21.146 57.344 21.555 79.872 1.946l-0.256-0.256 9.37-9.37c0.768-1.075 1.638-1.792 2.355-2.97l0.461 0.154 40.806-40.858c4.71-4.659 10.701-6.861 17.152-6.861 8.96 0 18.739 4.301 27.136 12.698l83.456 83.405c8.141 8.192 12.8 18.074 12.749 27.085l-1.075 11.366-46.643 46.694 0.307 0.87c-2.202 1.331-3.942 3.174-5.888 4.71l-6.605 6.656-0.358-0.358c-9.472 10.547-15.053 24.115-15.053 38.758 0 31.232 24.115 56.627 55.040 58.266v-0.87h13.619c1.178-0.205 2.253-0.102 3.43-0.41l0.205 0.41h57.6c15.872 0 27.392 14.95 27.392 35.482l0 117.862c-0.051 20.582-11.571 35.482-27.443 35.482zM937.267 234.445h-34.918l-2.662 0.512c-6.451 1.28-13.107 1.997-19.917 1.997-55.654 0-100.915-45.261-100.915-100.915 0-33.792 16.845-65.178 45.158-84.019l0.819-0.512 26.061-26.061-75.776-75.469-24.576 24.576-1.587 2.406c-3.635 5.427-7.834 10.65-12.698 15.462-38.093 38.093-104.602 38.093-142.694 0-23.91-23.91-34.253-58.112-27.494-91.392l0.154-0.666v-37.069l-106.957 0.102v34.867l0.512 2.765c1.28 6.451 1.997 13.056 1.997 19.866 0 55.654-45.261 100.915-100.915 100.915-33.792 0-65.178-16.845-84.019-45.158l-0.461-0.717-26.112-26.112-75.469 75.776 24.73 24.781 2.099 1.382c5.581 3.635 10.803 7.936 15.514 12.698 39.373 39.373 39.373 103.373 0 142.746-23.654 23.706-57.856 34.202-91.392 27.494l-0.666-0.154h-37.069l0.205 106.957 34.662 0 2.918-0.563c6.451-1.28 13.056-1.997 19.866-1.997 55.654 0 100.915 45.261 100.915 100.915 0 33.843-16.845 65.28-45.158 84.070l-0.768 0.512-26.112 26.061 75.827 75.418 24.73-24.73 1.382-2.15c3.584-5.478 7.885-10.752 12.698-15.565 19.046-19.046 44.39-29.542 71.373-29.542s52.326 10.496 71.322 29.491c23.91 23.91 34.253 58.061 27.546 91.392l-0.154 0.717v37.069l106.906-0.205v-35.123l-0.461-2.304c-1.331-6.554-1.997-13.312-1.997-20.019 0-55.654 45.261-100.915 100.915-100.915 33.843 0 65.28 16.896 84.019 45.158l0.358 0.563 26.266 26.266 75.52-75.776-24.422-24.474-2.56-1.69c-5.478-3.635-10.65-7.834-15.462-12.698-39.373-39.322-39.373-103.373 0-142.694 18.995-19.046 44.339-29.491 71.322-29.491 6.707 0 13.466 0.666 20.070 1.997l0.768 0.154h37.018l-0.256-106.906zM512.717 459.878c-94.874 0-171.981-77.158-171.981-171.981s77.158-171.981 171.981-171.981 171.981 77.158 171.981 171.981-77.158 171.981-171.981 171.981zM512.717 156.877c-72.243 0-131.021 58.726-131.021 131.021s58.726 131.072 131.021 131.072 131.021-58.778 131.021-131.072-58.778-131.021-131.021-131.021z"  horiz-adv-x="1024" />

    
    <glyph glyph-name="share" unicode="&#58929;" d="M785.87 96.262c-44.881 0-85.415-18.811-113.988-48.886l-306.868 191.5c6.51 17.028 10.082 35.47 10.082 54.729 0 19.858-3.798 38.854-10.701 56.321l310.931 178.572c28.343-28.016 67.441-45.361 110.542-45.361 86.337 0 156.583 69.52 156.583 155.004s-70.244 155.004-156.581 155.004c-86.293 0-156.54-69.52-156.54-155.006 0-20.11 3.889-39.334 10.958-56.978l-310.667-178.442c-28.375 28.316-67.683 45.887-111.066 45.887-86.292 0-156.541-69.562-156.541-155.006 0-85.482 70.249-155.004 156.541-155.004 44.051 0 83.894 18.106 112.364 47.187l307.668-192.005c-5.987-16.409-9.26-34.095-9.26-52.524 0-85.484 70.246-155.004 156.54-155.004 86.337 0 156.583 69.519 156.583 155.004 0 85.486-70.247 155.007-156.583 155.007zM785.87 730.196c51.298 0 92.995-41.267 92.995-92.057 0-50.787-41.699-92.098-92.995-92.098-51.258 0-92.993 41.313-92.993 92.098 0 50.789 41.735 92.057 92.993 92.057zM218.557 201.507c-51.255 0-92.95 41.313-92.95 92.095 0 50.747 41.695 92.060 92.95 92.060 29.324 0 55.516-13.536 72.574-34.609 0.65-1.834 1.474-3.637 2.496-5.381 1.746-2.987 3.924-5.571 6.4-7.747 7.338-13.158 11.526-28.265 11.526-44.323 0-16.901-4.644-32.745-12.704-46.374-0.747-0.921-1.454-1.89-2.105-2.913-0.621-0.971-1.179-1.964-1.678-2.972-16.8-24.043-44.831-39.834-76.508-39.834zM785.87-150.798c-51.258 0-92.993 41.271-92.993 92.055 0 15.658 3.979 30.41 10.97 43.334 1.045 1.2 2.023 2.484 2.899 3.871 1.030 1.619 1.885 3.298 2.583 5.013 16.798 24.071 44.839 39.882 76.54 39.882 51.298 0 92.995-41.311 92.995-92.099 0.001-50.783-41.696-92.055-92.994-92.055z"  horiz-adv-x="1024" />

    
    <glyph glyph-name="pencil" unicode="&#58891;" d="M0-195.328c0-8.832 7.168-16 16-16l995.552 0c2.144 0 4.224 0.416 6.176 1.248s3.712 2.016 5.184 3.488c0.032 0.032 0.064 0.032 0.096 0.064 0.096 0.096 0.096 0.288 0.224 0.384 1.632 1.76 2.688 3.904 3.424 6.24 0.224 0.736 0.32 1.44 0.448 2.208 0.128 0.8 0.48 1.504 0.48 2.336 0 1.28-0.448 2.4-0.736 3.584-0.096 0.448 0.096 0.896-0.064 1.344l-101.12 310.88c-0.768 2.4-2.112 4.608-3.904 6.368l-547.744 547.776c-0.576 0.896-0.992 1.856-1.76 2.656l-119.648 119.648c-19.424 19.424-51.04 19.424-70.496 0l-167.52-167.52c-9.408-9.408-14.592-21.92-14.592-35.232s5.184-25.856 14.592-35.264l116.992-116.992c0.576-0.864 0.96-1.856 1.728-2.624l546.88-550.56c1.888-1.92 4.192-3.296 6.784-4.064l214.816-64-885.792 0c-8.832 0.032-16-7.136-16-15.968zM203.584 486.848l501.984-495.552-18.464-64.064-519.84 523.296 36.32 36.32zM730.112 12l-503.936 497.44 77.984 77.984 499.424-500.736 0-74.688-73.472 0zM823.52 112l-496.736 498.048 33.248 33.248 518.752-518.752-55.264-12.544zM735.616-20l83.968 0c8.832 0 16 7.168 16 16l0 85.92 64.224 14.592 87.136-267.84-271.616 80.928 20.288 70.4zM32 594.144c0 4.768 1.856 9.216 5.216 12.608l167.52 167.52c6.944 6.944 18.24 6.976 25.248 0l107.904-107.904-192.736-192.736-107.904 107.904c-3.392 3.36-5.248 7.84-5.248 12.608z"  horiz-adv-x="1028" />

    
    <glyph glyph-name="refresh" unicode="&#58894;" d="M836.607 287.162c0-192.65-153.46-348.835-342.773-348.835-31.267 0-61.395 4.659-90.203 12.626 145.526 40.327 252.575 175.371 252.575 336.212-42.055 0-84.413 0-126.318 0l216.518 220.359 216.555-220.359h-126.352zM331.444 287.162h126.279l-216.555-220.323-216.531 220.323h126.362c0 192.684 153.458 348.874 342.833 348.874 31.243 0 61.415-4.637 90.185-12.602-145.526-40.327-252.573-175.387-252.573-336.26v0z"  horiz-adv-x="1024" />

    
    <glyph glyph-name="parameter" unicode="&#58913;" d="M941.456029 623.335083c-12.43931 12.43931-28.977985 19.290345-46.570665 19.290345L540.805046 642.625428l0-379.010103L161.794943 263.615325l0-353.695554c0-17.695011 6.890944-34.3309 19.401886-46.841841 12.511965-12.512988 29.147854-19.403932 46.843888-19.403932l666.181545 0c17.769712 0 34.475186 6.92062 47.038316 19.48375 12.564154 12.56313 19.484773 29.269627 19.484773 47.039339L960.745351 576.762371C960.746374 594.354028 953.896362 610.893726 941.456029 623.335083zM919.814126-89.803937c0-6.835685-2.661619-13.262048-7.495718-18.096147-4.833075-4.834098-11.259438-7.494695-18.095124-7.494695L228.04174-115.394778c-6.762007 0-13.118785 2.632967-17.900695 7.414877-4.780887 4.780887-7.413853 11.137665-7.413853 17.898649l0 312.763306 379.010103 0L581.737294 601.692157 894.885364 601.692157c6.658653 0 12.919241-2.593058 17.627473-7.30129 4.709255-4.709255 7.302313-10.969842 7.302313-17.628496L919.815149-89.803937zM483.194954 756.327026 128.95807 756.327026c-17.549701 0-34.050514-6.834662-46.460148-19.24532S63.252603 708.172283 63.252603 690.621559l0-354.23586 419.942351 0L483.194954 756.327026zM442.262706 377.317946 104.184851 377.317946 104.184851 690.621559c0 6.616698 2.576685 12.837376 7.256264 17.516956s10.900258 7.256264 17.516956 7.256264l313.304635 0L442.262706 377.317946z"  horiz-adv-x="1024" />

    
    <glyph glyph-name="shanglajiantou" unicode="&#58883;" d="M193.570743 138.711771 245.2864 86.999771 512 353.7152 778.7136 86.999771 830.431086 138.7136 512 457.142857ZM512 646.286629 778.7136 379.5712 830.431086 431.285029 512 749.714286 193.570743 431.285029 245.2864 379.5712Z"  horiz-adv-x="1024" />

    
    <glyph glyph-name="edit" unicode="&#58887;" d="M919.481552 487.058326c-0.911766-1.921769-1.978051-3.787256-3.578502-5.375427L369.531218-64.101555c-0.036839-0.027629-0.036839-0.075725-0.075725-0.103354-0.036839-0.038886-0.075725-0.049119-0.112564-0.085958l-0.11461-0.085958c-0.113587-0.124843-0.267083-0.161682-0.419556-0.286526-1.865487-1.968841-3.958148-3.75758-6.622838-4.776793L92.825129-146.257693c-0.60989-0.284479-1.293459-0.333598-1.941212-0.561795l-0.838088-0.237407c-0.151449-0.056282-0.303922-0.019443-0.456395-0.066515-1.828648-0.50449-3.654226-0.89437-5.595438-0.88516-1.904373-0.049119-3.693112 0.284479-5.481851 0.799202-0.419556 0.112564-0.799202 0.036839-1.179872 0.171915-0.153496 0.056282-0.267083 0.179079-0.418532 0.237407-1.713015 0.656963-3.198855 1.617847-4.683672 2.749624-0.760317 0.551562-1.52268 1.017166-2.206248 1.664919-0.64673 0.666172-1.105171 1.456165-1.676176 2.217505-1.103124 1.475608-2.093684 2.970658-2.740414 4.673439-0.038886 0.152473-0.191358 0.255827-0.228197 0.407276-0.152473 0.391926-0.075725 0.781806-0.191358 1.171686-0.494257 1.798972-0.838088 3.587712-0.799202 5.490038 0 1.943258 0.379647 3.759627 0.874927 5.597485 0.075725 0.152473 0.038886 0.314155 0.075725 0.465604l0.267083 0.828878c0.228197 0.64673 0.267083 1.340531 0.532119 1.958608l76.818573 269.333168c1.029446 2.684132 2.818185 4.776793 4.796236 6.661723 0.11461 0.122797 0.152473 0.294712 0.267083 0.418532l0.11461 0.075725c0.036839 0.036839 0.036839 0.085958 0.075725 0.122797 0.036839 0.038886 0.075725 0.049119 0.113587 0.075725L685.753299 695.159922c0.836041 0.931209 1.787716 1.732457 2.625804 2.635013l5.711072 5.700839c0.303922 0.296759 0.683569 0.38988 0.989537 0.656963 28.130687 26.941606 65.892733 43.891649 107.918895 43.891649 86.639243 0 156.836001-70.225411 156.836001-156.836001C959.834608 551.030313 944.339706 514.761272 919.481552 487.058326zM845.822948 465.455309l-70.536496 70.5191L314.526463 75.194978c0.075725-0.152473 0.265036-0.208754 0.343831-0.370437l45.906539-93.854575L845.822948 465.455309zM113.419166-98.998343l53.636594 15.313777-38.334073 38.350446L113.419166-98.998343zM140.67595-3.449173l68.291362-68.293409L328.001359-37.787236c0 0-49.906643 102.989629-49.943482 103.923908l-103.428627 49.458435L140.67595-3.449173zM287.231817 102.459948c0.151449-0.075725 0.228197-0.265036 0.379647-0.350994l460.759989 460.779432-70.497611 70.507844-484.477156-485.026672L287.231817 102.459948zM802.388716 709.064606c-34.715663 0-65.703421-15.132652-87.47733-38.867216l-0.152473 0.144286-9.973142-10.012028 167.951153-167.970596 10.277064 10.279111-0.112564 0.112564c23.563672 21.754466 38.561247 52.636824 38.561247 87.239923C921.462672 655.751377 868.167862 709.064606 802.388716 709.064606z"  horiz-adv-x="1024" />

    
    <glyph glyph-name="delete" unicode="&#58918;" d="M883.1584 598.666667 725.333333 598.666667l0 115.2c0 7.0688-4.775467 12.8-10.666667 12.8l-405.333333 0c-5.8912 0-10.666667-5.7312-10.666667-12.8l0-115.2-157.825067 0c-7.092267 0-12.8416-2.865067-12.8416-6.4l0-29.866667c0-3.534933 5.749333-6.4 12.8416-6.4l51.1584 0 0-669.866667c0-7.0688 6.139733-12.8 13.714133-12.8l612.571733 0c7.5744 0 13.714133 5.7312 13.714133 12.8l0 669.866667 51.1584 0c7.092267 0 12.8416 2.865067 12.8416 6.4l0 29.866667C896 595.800533 890.250667 598.666667 883.1584 598.666667zM341.333333 684l341.333333 0 0-85.333333-341.333333 0L341.333333 684zM789.333333-84l-554.666667 0 0 640 554.666667 0L789.333333-84zM503.466667 1.333333l17.066667 0c7.0688 0 12.8 5.7312 12.8 12.8l0 443.733333c0 7.0688-5.7312 12.8-12.8 12.8l-17.066667 0c-7.0688 0-12.8-5.7312-12.8-12.8l0-443.733333C490.666667 7.063467 496.397867 1.333333 503.466667 1.333333zM375.466667 1.333333l17.066667 0c7.0688 0 12.8 5.7312 12.8 12.8l0 443.733333c0 7.0688-5.7312 12.8-12.8 12.8l-17.066667 0c-7.0688 0-12.8-5.7312-12.8-12.8l0-443.733333C362.666667 7.063467 368.397867 1.333333 375.466667 1.333333zM631.466667 1.333333l17.066667 0c7.0688 0 12.8 5.7312 12.8 12.8l0 443.733333c0 7.0688-5.7312 12.8-12.8 12.8l-17.066667 0c-7.0688 0-12.8-5.7312-12.8-12.8l0-443.733333C618.666667 7.063467 624.397867 1.333333 631.466667 1.333333z"  horiz-adv-x="1024" />

    
    <glyph glyph-name="download" unicode="&#58919;" d="M768 44q0 14.857143-10.857143 25.714286t-25.714286 10.857143-25.714286-10.857143-10.857143-25.714286 10.857143-25.714286 25.714286-10.857143 25.714286 10.857143 10.857143 25.714286zm146.285714 0q0 14.857143-10.857143 25.714286t-25.714286 10.857143-25.714286-10.857143-10.857143-25.714286 10.857143-25.714286 25.714286-10.857143 25.714286 10.857143 10.857143 25.714286zm73.142857 128l0-182.857143q0-22.857143-16-38.857143t-38.857143-16l-841.142857 0q-22.857143 0-38.857143 16t-16 38.857143l0 182.857143q0 22.857143 16 38.857143t38.857143 16l265.714286 0 77.142857-77.714286q33.142857-32 77.714286-32t77.714286 32l77.714286 77.714286 265.142857 0q22.857143 0 38.857143-16t16-38.857143zm-185.714286 325.142857q9.714286-23.428571-8-40l-256-256q-10.285714-10.857143-25.714286-10.857143t-25.714286 10.857143l-256 256q-17.714286 16.571429-8 40 9.714286 22.285714 33.714286 22.285714l146.285714 0 0 256q0 14.857143 10.857143 25.714286t25.714286 10.857143l146.285714 0q14.857143 0 25.714286-10.857143t10.857143-25.714286l0-256 146.285714 0q24 0 33.714286-22.285714z"  horiz-adv-x="1024" />

    
    <glyph glyph-name="jikediancanicon09" unicode="&#58949;" d="M511.584 754.496c-251.04 0-455.264-204.224-455.264-455.232 0-251.04 204.224-455.264 455.264-455.264 251.04 0 455.264 204.224 455.264 455.264C966.848 550.272 762.624 754.496 511.584 754.496zM511.584-108c-224.576 0-407.264 182.688-407.264 407.264 0 224.544 182.688 407.232 407.264 407.232s407.264-182.688 407.264-407.232C918.848 74.688 736.16-108 511.584-108zM683.296 332 544 332l0 138.976c0 13.248-18.752 24-32 24-13.248 0-32-10.752-32-24L480 332l-140.128 0c-13.248 0-24-18.752-24-32 0-13.248 10.752-32 24-32L480 268l0-140.48c0-13.248 18.752-24 32-24 13.248 0 32 10.752 32 24L544 268l139.296 0c13.248 0 24 18.752 24 32C707.296 313.248 696.576 332 683.296 332z"  horiz-adv-x="1024" />

    
    <glyph glyph-name="promptattribute" unicode="&#58914;" d="M512 773.6 25.6 293.6 512-192.8l486.4 486.4L512 773.6zM102.4 293.6 512 703.2l409.6-409.6L512-122.4 102.4 293.6z"  horiz-adv-x="1024" />

    
    <glyph glyph-name="contentleft" unicode="&#58930;" d="M170.666667 853.333333l170.666667 0q52.992 0 90.496-37.504t37.504-90.496l0-682.666667q0-52.992-37.504-90.496t-90.496-37.504l-170.666667 0q-52.992 0-90.496 37.504t-37.504 90.496l0 682.666667q0 52.992 37.504 90.496t90.496 37.504zM341.333333 768l-170.666667 0q-17.664 0-30.165333-12.501333t-12.501333-30.165333l0-682.666667q0-17.664 12.501333-30.165333t30.165333-12.501333l170.666667 0q17.664 0 30.165333 12.501333t12.501333 30.165333l0 682.666667q0 17.664-12.501333 30.165333t-30.165333 12.501333zM682.666667 341.333333l170.666667 0q52.992 0 90.496-37.504t37.504-90.496l0-170.666667q0-52.992-37.504-90.496t-90.496-37.504l-170.666667 0q-52.992 0-90.496 37.504t-37.504 90.496l0 170.666667q0 52.992 37.504 90.496t90.496 37.504zM853.333333 256l-170.666667 0q-17.664 0-30.165333-12.501333t-12.501333-30.165333l0-170.666667q0-17.664 12.501333-30.165333t30.165333-12.501333l170.666667 0q17.664 0 30.165333 12.501333t12.501333 30.165333l0 170.666667q0 17.664-12.501333 30.165333t-30.165333 12.501333zM682.666667 853.333333l170.666667 0q52.992 0 90.496-37.504t37.504-90.496l0-170.666667q0-52.992-37.504-90.496t-90.496-37.504l-170.666667 0q-52.992 0-90.496 37.504t-37.504 90.496l0 170.666667q0 52.992 37.504 90.496t90.496 37.504zM853.333333 768l-170.666667 0q-17.664 0-30.165333-12.501333t-12.501333-30.165333l0-170.666667q0-17.664 12.501333-30.165333t30.165333-12.501333l170.666667 0q17.664 0 30.165333 12.501333t12.501333 30.165333l0 170.666667q0 17.664-12.501333 30.165333t-30.165333 12.501333z"  horiz-adv-x="1024" />

    
    <glyph glyph-name="icon" unicode="&#58899;" d="M898.002866 415.820865l0-446.023356c0-30.614252-30.272467-56.092529-60.876486-56.092529L172.220898-86.29502c-30.592762 0-55.405891 24.813129-55.405891 55.42738L116.815007 634.233294c0 30.616298 25.535583 60.359716 56.138578 60.359716l446.182992 0L619.136577 750.342732 172.954609 750.342732c-61.207014 0-111.544469-54.878888-111.544469-116.110461l0-665.100934c0-61.23055 49.615001-110.855784 110.811782-110.855784l664.905482 0c61.197804 0 116.64872 50.291406 116.64872 111.520933L953.776124 415.820865 898.002866 415.820865zM315.459207 274.529909 195.544093 31.85489c-10.06831-27.313066 11.79872-51.8059 39.10053-39.123043l242.60748 119.962186c10.457166 2.040473 20.60427 6.076392 28.711925 14.195304l430.966429 431.115831c21.63781 21.62553 21.63781 56.736189 0 78.384231l-97.946776 97.968266c-21.638833 21.649066-56.723909 21.649066-78.361719 0L329.65451 303.241834C321.548902 295.148505 317.500703 284.989121 315.459207 274.529909zM780.217253 675.581004c10.812253 10.824533 28.357861 10.824533 39.182394 0l58.764382-58.800197c10.824533-10.824533 10.824533-28.367071 0-39.191604l-58.776661-58.776661-96.535637 99.367125L780.217253 675.581004zM681.572582 576.901541l98.644671-97.28265L466.771401 166.081964c-36.727483 36.736693-8.760524 8.759501-19.585057 19.584034l-58.766428 58.801221c-10.822486 10.82351-9.18315 9.172917-19.594267 19.583011L681.572582 576.901541zM417.969928 136.519672 268.160971 45.797437c-13.656021-6.329149-25.891693 6.788613-19.561521 19.562545l90.687442 149.867286L417.969928 136.519672z"  horiz-adv-x="1024" />

    
    <glyph glyph-name="icon1" unicode="&#58881;" d="M895.210775 171.942439l63.824631 0 0.066515-237.921761c0-45.955658-31.335682-81.156368-80.621179-81.156368L640.023792-147.13569l0 63.84612 204.094328-0.042979c34.136471 0 50.940183 20.570501 51.077306 52.400441L895.210775 171.942439zM126.481669 171.942439 62.657039 171.942439 62.590524-65.979322c0-45.955658 31.335682-81.156368 80.621179-81.156368l238.45695 0 0 63.84612-204.094328-0.042979c-34.136471 0-50.940183 20.570501-51.077306 52.400441L126.481669 171.942439zM127.504976 428.9857 63.680345 428.9857l-0.066515 237.921761c0 45.955658 31.335682 81.156368 80.621179 81.156368l238.45695 0 0-63.84612-204.094328 0.042979c-34.136471 0-50.940183-20.570501-51.077306-52.400441L127.504976 428.9857zM895.210775 426.939087l63.824631 0 0.066515 237.921761c0 45.955658-31.335682 81.156368-80.621179 81.156368L640.023792 746.017216l0-63.84612 204.094328 0.042979c34.136471 0 50.940183-20.570501 51.077306-52.400441L895.210775 426.939087zM256.618589 543.09969l511.115863 0 0-61.395302-511.115863 0 0 61.395302ZM256.618589 336.835953l511.115863 0 0-61.395302-511.115863 0 0 61.395302ZM256.618589 121.497537l511.115863 0 0-61.395302-511.115863 0 0 61.395302Z"  horiz-adv-x="1024" />

    
    <glyph glyph-name="liebiao2" unicode="&#58964;" d="M98.357122 77.26806c-14.213723 0-25.764803-11.532661-25.764803-25.76071 0-14.233166 11.55108-25.770943 25.764803-25.770943M922.866648 77.26806 98.128925 77.26806c-14.21884 0-25.770943-11.532661-25.770943-25.76071 0-14.233166 11.552104-25.770943 25.770943-25.770943l824.737724 0c14.213723 0 25.764803 11.538801 25.764803 25.770943C948.633498 65.737446 937.081395 77.26806 922.866648 77.26806zM98.357122 412.229948c-14.213723 0-25.764803-11.537777-25.764803-25.76992 0-14.229073 11.55108-25.764803 25.764803-25.764803M922.866648 412.229948 98.128925 412.229948c-14.21884 0-25.770943-11.537777-25.770943-25.76992 0-14.229073 11.552104-25.764803 25.770943-25.764803l824.737724 0c14.213723 0 25.764803 11.537777 25.764803 25.764803C948.633498 400.692171 937.081395 412.229948 922.866648 412.229948zM98.357122 747.184673c-14.213723 0-25.764803-11.539824-25.764803-25.768897 0-14.227026 11.55108-25.76378 25.764803-25.76378M98.128925 695.653019l824.737724 0c14.213723 0 25.764803 11.536754 25.764803 25.76378 0 14.229073-11.55108 25.768897-25.764803 25.768897L98.128925 747.185696c-14.21884 0-25.770943-11.539824-25.770943-25.768897C72.359005 707.18875 83.911108 695.653019 98.128925 695.653019z"  horiz-adv-x="1024" />

    
    <glyph glyph-name="guanwangicon54" unicode="&#58959;" d="M423.04 284l-55.68 0-11.52-37.12-35.84 0L377.6 419.04l35.2 0 57.6-172.16-35.84 0L423.04 284 423.04 284zM375.68 310.88l39.04 0-19.2 60.8-0.64 0L375.68 310.88zM521.6 309.6l0-62.08-34.56 0L487.04 419.04l65.92 0c19.84 0 35.2-5.12 46.72-15.36 11.52-10.24 17.28-23.04 17.28-39.68 0-16.64-5.76-29.44-17.28-39.68-11.52-10.24-26.88-14.72-46.72-14.72L521.6 309.6 521.6 309.6zM521.6 335.84l31.36 0c9.6 0 16.64 2.56 21.76 7.68 5.12 5.12 7.68 12.16 7.68 19.84 0 8.32-2.56 15.36-7.68 20.48-5.12 5.12-12.16 8.32-21.76 8.32l-31.36 0L521.6 335.84 521.6 335.84zM677.76 246.88l-34.56 0L643.2 419.04l34.56 0L677.76 246.88zM1024.64 278.24c0-100.48-81.92-182.4-182.4-182.4l-186.24 0c-11.52 0-20.48 8.96-20.48 20.48 0 11.52 8.96 20.48 20.48 20.48l186.24 0c78.08 0 141.44 63.36 141.44 141.44 0 77.44-63.36 140.8-140.8 141.44-0.64 0-0.64 0-1.28 0-5.76 0-11.52 2.56-16 7.04-3.84 4.48-5.76 10.24-5.12 16 1.28 10.88 1.92 19.84 1.92 28.16 0 60.8-23.68 118.4-66.56 161.28-42.88 42.88-100.48 66.56-161.28 66.56-47.36 0-92.8-14.72-131.84-42.24-37.76-26.88-65.92-64-82.56-107.52-2.56-6.4-8.32-11.52-14.72-12.8-7.04-1.28-14.08 0.64-19.2 5.76-19.2 19.2-44.8 30.08-72.32 30.08-56.32 0-102.4-46.08-102.4-102.4 0 0 0-1.28 0-1.92 0-0.64 0-1.92 0-2.56 0.64-9.6-5.76-17.92-15.36-20.48-32.64-8.96-62.08-28.8-82.56-55.68-21.12-27.52-32.64-60.8-32.64-96 0-86.4 70.4-156.8 156.8-156.8l170.88 0c11.52 0 20.48-8.96 20.48-20.48 0-11.52-8.96-20.48-20.48-20.48L198.4 95.2c-109.44 0-198.4 88.96-198.4 198.4C0 338.4 14.08 380 41.6 415.2c23.04 29.44 54.4 52.48 88.96 65.28C135.68 554.72 197.76 613.6 273.92 613.6c28.8 0 55.68-8.32 78.72-23.68 19.84 40.32 49.28 74.24 85.76 100.48 45.44 32.64 99.2 49.28 155.52 49.28 71.68 0 139.52-28.16 190.72-78.72 51.2-51.2 78.72-118.4 78.72-190.72 0-3.84 0-7.68 0-11.52C953.6 449.12 1024.64 371.68 1024.64 278.24L1024.64 278.24 1024.64 278.24zM629.12 37.6c-3.84-3.84-8.96-5.76-14.72-5.76-5.12 0-10.24 1.92-14.72 5.76l-67.2 67.2c0 0 0 0 0 0l0-220.8c0-11.52-8.96-24.96-19.84-24.96-11.52 0-21.12 13.44-21.12 24.96l0 220.8c0 0 0 0 0 0L424.32 37.6c-8.32-8.32-21.12-8.32-28.8 0-8.32 8.32-8.32 21.12 0 28.8l102.4 102.4c8.32 8.32 21.12 8.32 28.8 0l102.4-102.4C636.8 58.72 636.8 45.92 629.12 37.6L629.12 37.6 629.12 37.6z"  horiz-adv-x="1025" />

    
    <glyph glyph-name="hospital" unicode="&#58931;" d="M1000.372 356.392l-136.199 106.937-308.126 230.272c-0.707 0.52-1.429 0.994-2.184 1.419-12.384 8.384-26.84 12.881-41.879 12.881-15.669 0-30.674-4.784-43.479-13.876-0.144-0.156-0.349-0.343-0.554-0.425l-444.324-337.208c-11.827-8.698-14.408-25.315-5.881-37.174 8.586-11.86 25.076-14.551 36.874-5.913l443.959 337.020c0.095 0.033 0.207 0.095 0.282 0.158 3.838 2.739 8.404 4.217 13.121 4.217 4.732 0 9.277-1.477 13.089-4.217 0.156-0.125 0.362-0.205 0.583-0.33l443.691-336.848c11.816-8.638 28.317-5.947 36.874 5.913 8.558 11.859 5.996 28.476-5.849 37.174zM575.851 244.872c-0.864-9.439-2.78-18.846-5.549-25.39-0.553-1.132-1.069-2.294-1.653-3.429l-0.019-0.033c-12.724-24.253-33.882-44.076-68.442-44.076-38.008 0-59.78 23.975-71.989 51.443-0.847 2.17-1.601 4.277-2.247 6.352 0.962-4.152 2.281-8.464 4.040-12.867 12.179-27.466 33.982-51.472 71.972-51.472 34.576 0 55.733 19.852 68.447 44.112l0.016 0.033c0.577 1.129 1.098 2.26 1.648 3.393 1.557 3.682 2.864 8.307 3.858 13.309 0.535 6.548 0.535 13.092-0.082 18.626zM601.211 288.482c-0.441-11.864-15.527-33.007-18.436-43.672-0.282-1.038-0.503-1.509-0.708-1.509-0.188 0-0.33 0.405-0.474 1.16-1.223 6.704-1.018 40.148-8.177 46.191-8.825 7.457-82.544 22.365-96.67 47.347-21.204-35.487-51.060-39.073-55.626-48.23-1.477-3.772-1.964-9.657-1.964-15.823 0.282 3.489 0.803 6.574 1.716 8.902 4.561 9.125 34.43 12.709 55.622 48.216 14.129-24.981 87.843-39.878 96.669-47.352 7.172-6.056 6.969-39.498 8.182-46.198 0.139-0.727 0.297-1.166 0.486-1.166 0.187 0 0.424 0.504 0.707 1.51 2.893 10.664 17.998 31.839 18.438 43.67 0.077 2.062 0.268 4.718 0.393 7.865-0.015 0.252-0.048 0.474-0.063 0.727l-0.095-1.637zM855.502 301.191l-307.92 237.193c-0.062 0.062-0.185 0.111-0.218 0.14-10.383 7.472-22.619 11.439-35.379 11.501-12.71 0-24.904-3.996-35.272-11.372-0.092-0.129-0.202-0.158-0.311-0.269l-307.903-237.193c-6.894-5.066-10.918-13.091-10.918-21.519v-300.308c0-51.378 41.466-93.126 92.326-93.126h524.127c50.922 0 92.323 41.748 92.323 93.126v300.307c0 8.429-4.058 16.453-10.855 21.52zM429.696 359.567c11.501 10.965 37.252 7.504 40.632 10.525 10.509 9.44 28.191 15.559 47.068 15.559 20.655 0 42.745-7.333 58.409-25.646 24.807-28.991 26.114-55.578 25.563-70.615 0.726-9.060 0.014-16.263-0.158-20.699-0.441-11.831-15.527-32.974-18.436-43.641-0.282-1.038-0.503-1.509-0.708-1.509-0.188 0-0.33 0.408-0.474 1.165-1.223 6.703-1.018 40.143-8.177 46.186-8.825 7.457-82.544 22.369-96.67 47.35-0.062-0.108-0.142-0.221-0.186-0.315 14.25-24.933 87.797-39.799 96.602-47.256 1.37-1.163 2.454-3.337 3.349-6.105 2.47-9.469 1.997-25.262-0.579-38.32-0.802-9.752-2.77-19.571-5.631-26.335-0.553-1.161-1.069-2.294-1.653-3.427l-0.019-0.034c-12.724-24.255-33.882-44.108-68.442-44.108-38.008 0-59.78 24.006-71.989 51.473-6.104 15.225-6.889 29.416-5.41 40.459 0.597-4.658 1.605-9.504 3.163-14.538-5.87 25.642 2.185 46.188 7.643 49.27 7.218 3.901 16.567 9.030 25.865 17.728-17.465-16.186-34.942-19.898-38.34-26.725-0.754-1.921-1.223-4.375-1.524-7.142-0.25 3.521-0.427 7.361-0.441 11.074-0.692-8.809 0.234-19.947 0.99-26.681 0.378-3.62 0.727-6.010 0.727-6.010s-0.473 0.598-1.261 1.698c-0.187 2.517-0.316 5.194-0.375 7.867-3.904 5.693-12.586 20.606-14.789 41.858-0.158-1.807-0.314-3.632-0.409-5.522-0.25 2.708-0.378 5.507-0.378 8.399 0 33.326 14.568 53.069 26.036 64.015zM554.914 150.265c-3.87-26.333-28.158-58.235-52.163-58.298-24.006 0.062-48.295 31.964-52.147 58.298l52.147-58.298 52.163 58.298zM687.591 12.934c0-0.785-0.046-1.541-0.142-2.267-0.063 1.386-0.172 2.738-0.267 4.122-1.823-8.965-9.815-15.7-19.398-15.7h-329.971c-9.534 0-17.494 6.67-19.381 15.574-0.095-1.354-0.187-2.738-0.267-4.092-0.095 0.789-0.14 1.545-0.14 2.363v7.27c0 73.274 63.709 110.554 119.743 126.697 5.018-29.764 30.233-62.704 58.298-67.393-0.991-21.611-8.161-59.303-46.061-59.303-26.803 0-31.963 16.769-32.749 20.23 18.72 3.112 33.002 19.159 33.002 38.541 0 21.644-17.743 39.169-39.611 39.169-21.865 0-39.595-17.525-39.595-39.169 0-19.445 14.364-35.521 33.147-38.574l-0.062-1.606c1.793-10.946 13.703-31.649 45.87-31.649 35.649 0 57.451 26.929 59.216 72.298l0.218 0.063c28.064 4.689 53.3 37.662 58.301 67.427 56.050-16.142 119.854-53.393 119.854-126.729v-7.272zM410.739 52.953c-14.565 0-26.381 11.674-26.381 26.115 0 14.412 11.816 26.084 26.381 26.084 14.598 0 26.415-11.672 26.415-26.084 0-14.441-11.817-26.115-26.415-26.115zM410.739 99.013c-10.9 0-19.79-8.776-19.79-19.569 0-10.789 8.889-19.571 19.79-19.571 10.918 0 19.822 8.782 19.822 19.571 0 10.793-8.905 19.569-19.822 19.569zM410.739 66.389c-7.268 0-13.184 5.851-13.184 13.055 0 7.203 5.917 13.059 13.184 13.059 7.3 0 13.217-5.856 13.217-13.059-0.001-7.204-5.917-13.055-13.217-13.055zM459.461 296.737c5.866 5.459 11.75 12.319 17.099 21.191-0.033 0.032-0.048 0.062-0.065 0.094-5.317-8.904-11.168-15.794-17.034-21.285z"  horiz-adv-x="1024" />

    
    <glyph glyph-name="lock" unicode="&#58901;" d="M894.40256 432.7104l-122.34752 0 0 101.94944c0 65.41312-25.47712 126.93504-71.72096 173.17888s-107.76576 71.72096-173.17888 71.72096-126.93504-25.47712-173.17888-71.72096-71.72096-107.76576-71.72096-173.17888l0-101.94944-122.34752 0c-11.30496 0-20.48-9.17504-20.48-20.48l0-571.35104c0-11.30496 9.17504-20.48 20.48-20.48l734.57664 0c11.30496 0 20.48 9.17504 20.48 20.48l0 571.35104c0 11.30496-9.17504 20.48-20.48 20.48zM323.13344 534.65984c0 54.51776 21.21728 105.71776 59.76064 144.26112s89.74336 59.71968 144.26112 59.71968 105.71776-21.21728 144.26112-59.71968c38.54336-38.54336 59.76064-89.74336 59.76064-144.26112l0-101.94944-407.9616 0 0 101.94944zM873.96352-138.64064l-693.6576 0 0 530.39104 693.6576 0 0-530.39104zM588.34944 167.37152c0-18.06336-7.9872-34.11968-20.39808-45.34272l0-56.68864c0-22.528-18.26816-40.83712-40.79616-40.83712s-40.79616 18.26816-40.79616 40.83712l0 56.68864c-12.45184 11.18208-20.39808 27.27936-20.39808 45.34272 0 33.792 27.40224 61.19424 61.19424 61.19424s61.19424-27.40224 61.19424-61.19424z"  horiz-adv-x="1024" />

    
    <glyph glyph-name="baoyou" unicode="&#58950;" d="M389.749 61.767c0-11.276-9.135-20.412-20.375-20.412v0c-11.237 0-20.374 9.135-20.374 20.412v511.484c0 11.241 9.135 20.374 20.374 20.374v0c11.239 0 20.375-9.134 20.375-20.374v-511.484zM757.995 552.503c43.028 3.327 57.087-17.354 42.143-62.009-6.587-28.153-17.354-66.185-32.225-114.138-8.285-28.115-12.395-43.023-12.395-44.618-1.663-3.362 1.628-11.613 9.919-24.79 36.365-61.228 53.718-121.572 52.091-181.136 1.628-54.573-38.882-81.839-121.541-81.839-18.197 1.628-27.302 9.913-27.302 24.79 3.296 16.502 14.027 24.788 32.229 24.788 49.609-4.959 71.957 9.919 66.999 44.625-1.663 46.282-19.052 96.814-52.092 151.35-6.623 9.919-12.394 20.65-17.354 32.262-1.699 1.627 0.783 10.731 7.437 27.303 18.203 44.618 32.225 87.648 42.178 129.008 3.291 19.83-2.482 28.933-17.391 27.303h-102.555c-9.949-1.663-14.909-9.136-14.909-22.314v-488.796c0-21.971-40.749-21.971-40.749 0v511.077c-0.783 39.423 28.866 48.594 65.811 47.133h119.703zM491.252 488.154h-243.69c-22.447 0-40.614-18.169-40.614-40.614v-365.531c0-22.447 18.166-40.614 40.614-40.614h243.69c22.447 0 40.615 18.166 40.615 40.614v365.494c-0.001 22.446-18.17 40.651-40.615 40.651v0zM491.319 102.278c0-11.202-9.103-20.306-20.307-20.306h-203.075c-11.239 0-20.338 9.103-20.338 20.306l-0.001 324.954c0 11.202 9.099 20.308 20.338 20.308h203.039c11.207 0 20.308-9.104 20.308-20.308l-0.001-324.955h0.036zM438.649 264.739c0-11.239-9.099-20.343-20.307-20.343h-162.457c-11.239 0-20.308 9.103-20.308 20.343v0c0 11.202 9.068 20.306 20.308 20.306h162.457c11.209 0 20.307-9.067 20.307-20.307v0 0zM512-221.38c-280.871 0-509.378 228.507-509.378 509.378s228.507 509.378 509.378 509.378c99.872 0 196.587-28.898 279.681-83.57 11.207-7.405 14.301-22.415 6.963-33.587-7.369-11.172-22.412-14.333-33.619-6.959-75.149 49.473-162.662 75.589-253.026 75.589-254.115 0-460.884-206.739-460.884-460.852s206.769-460.852 460.884-460.852 460.883 206.739 460.883 460.852c0 73.045-16.639 142.931-49.37 207.655-6.083 11.99-1.222 26.556 10.694 32.603 11.954 6.146 26.519 1.253 32.597-10.663 36.205-71.621 54.574-148.874 54.574-229.595 0-280.871-228.507-509.378-509.378-509.378v0zM512-221.38z"  horiz-adv-x="1024" />

    
    <glyph glyph-name="move" unicode="&#58920;" d="M575.956126 172.086725l0-191.869912 127.913275 0-191.869912-191.869912-191.869912 191.869912 127.913275 0 0 191.869912L575.956126 172.086725zM448.042851 427.913275l0 191.869912-127.913275 0 191.869912 191.869912 191.869912-191.869912-127.913275 0 0-191.869912L448.042851 427.913275zM384.086214 236.043363l-191.869912 0 0-127.913275-191.869912 191.869912 191.869912 191.869912 0-127.913275 191.869912 0L384.086214 236.043363zM639.912763 363.956637l191.869912 0 0 127.913275 191.869912-191.869912-191.869912-191.869912 0 127.913275-191.869912 0L639.912763 363.956637z"  horiz-adv-x="1024" />

    
    <glyph glyph-name="message" unicode="&#58941;" d="M339.661824-177.531136l-0.75264 0.694272 220.767232 239.327232 0.224256 0 290.147328 0.306176 0 0.104448 49.482752 0c49.636352 0 88.517632 39.26016 88.517632 89.378816l0 45.41952 0.161792 0.01536 0.4608 444.188672-0.187392 0 0 0.49152-0.512 0 0 44.937216c0 24.005632-8.92928 46.399488-25.143296 63.056896-16.39936 16.847872-38.762496 26.181632-62.97088 26.283008l-779.71456-0.356352c-52.918272-2.27328-84.632576-28.981248-84.815872-71.44448l0.385024-556.544c2.188288-47.893504 42.278912-85.428224 91.268096-85.428224L381.952 62.898944l0-1.024L126.98112 61.874944c-49.538048 0-90.077184 37.963776-92.291072 86.428672L34.304 704.873216c0.185344 43.077632 32.267264 70.166528 85.817344 72.466432L899.86048 777.696c49.983488-0.20992 89.136128-39.902208 89.136128-90.363904l0-44.40576 0.700416 0 0-0.512-0.461824-445.63456-0.161792-0.01536 0-44.485632c0-50.69312-39.33184-90.402816-89.541632-90.402816l-48.458752 0 0-0.1024-0.510976-0.001024-290.435072-0.3072L339.661824-177.531136zM361.865216-198.013184l-45.160448 41.658368 229.726208 249.038848 273.406976 0.288768 0 0.135168 79.690752 0c33.242112 0 58.309632 25.438208 58.309632 59.170816l0 72.96 0.191488 0.018432L958.464 642.39488l-0.700416 0 0 44.937216c0 33.549312-24.915968 58.958848-57.965568 59.131904l-778.954752-0.355328c-17.813504-0.852992-32.837632-5.3504-42.356736-12.689408C69.722112 726.661888 65.605632 717.570816 65.536 704.8128l0.385024-555.700224c1.7664-31.456256 28.466176-56.003584 61.060096-56.003584L381.952 93.108992l0-61.44L126.98112 31.668992c-65.721344 0-119.515136 50.62656-122.468352 115.258368l-0.031744 1.381376L4.096 704.929536l0 0.0768c0.137216 31.925248 12.888064 58.575872 36.87424 77.069312C60.828672 797.386496 87.749632 806.185728 118.82496 807.52l1.303552 0.028672L899.9168 807.904l0.07168 0c66.848768-0.279552 119.215104-53.240832 119.215104-120.57088l0-14.19776 0.73216 0-0.523264-503.898112-0.13312-0.012288 0-16.946176c0-67.632128-52.599808-120.610816-119.749632-120.610816l-18.250752 0 0-0.070656-307.908608-0.324608L361.865216-198.013184zM307.2 413.053696m-61.44 0a60 60 0 1 0 122.88 0 60 60 0 1 0-122.88 0ZM512 413.053696m-61.44 0a60 60 0 1 0 122.88 0 60 60 0 1 0-122.88 0ZM716.8 413.05472m-61.44 0a60 60 0 1 0 122.88 0 60 60 0 1 0-122.88 0Z"  horiz-adv-x="1024" />

    
    <glyph glyph-name="zhekou" unicode="&#58981;" d="M511.505781 812M512.0031 784.126529c-275.07736 0-498.066365-222.993966-498.066365-498.066365 0-275.067438 222.989005-498.060164 498.066365-498.060164 275.067438 0 498.060164 222.992726 498.060164 498.060164C1010.062024 561.132563 787.070539 784.126529 512.0031 784.126529zM512.0031-149.608073c-240.613472 0-435.673198 195.060966-435.673198 435.668237 0 240.613472 195.059726 435.673198 435.673198 435.673198 240.607271 0 435.668237-195.059726 435.668237-435.673198C947.671338 45.452893 752.610372-149.608073 512.0031-149.608073zM841.455742 286.051483c0 23.434799-48.478135 41.107633-53.473657 63.03063-5.156747 22.626189 30.748252 59.536989 20.914715 79.972987-10.030729 20.751008-61.35264 15.611624-75.598805 33.445684-14.306935 17.910953 2.074853 66.815717-15.858424 81.122651-17.811737 14.241204-61.854921-12.516087-82.60965-2.518844-20.431037 9.871983-26.880071 61.050032-49.507501 66.21174-21.921756 4.974438-49.889482-38.242774-73.32056-38.242774-23.43976 0-51.403765 43.217212-73.325521 38.242774-22.626189-5.161708-29.05414-56.339756-49.483937-66.190656-20.754729-10.014606-64.802874 16.762529-82.61337 2.516364-17.932036-14.306935-1.552729-63.206738-15.854703-81.118931-14.248645-17.810497-65.58792-12.693436-75.602526-33.466768-9.84966-20.413674 26.054099-57.346798 20.897352-79.972987-5.001722-21.922996-53.477377-39.594591-53.477377-63.025669 0-23.417436 48.476895-41.08655 53.477377-63.025669 5.156747-22.63115-30.748252-59.524587-20.914715-79.955624 10.03569-20.751008 61.35264-15.632707 75.598805-33.466768 14.301974-17.910953-2.074853-66.816957 15.853463-81.117691 17.816698-14.246165 61.858642 12.52973 82.635694 2.515123 20.408713-9.854621 26.857748-61.051272 49.483937-66.189416 21.922996-4.996761 49.890722 38.225411 73.325521 38.225411 23.431078 0 51.398804-43.222172 73.32056-38.225411 22.627429 5.138144 29.05414 56.334796 49.485177 66.172053 20.754729 10.031969 64.797913-16.765009 82.61337-2.518844 17.932036 14.306935 1.551489 63.206738 15.853463 81.118931 14.246165 17.83282 65.58916 12.715759 75.598805 33.487851 9.855861 20.413674-26.049138 57.325715-20.892391 79.951904C792.977606 244.968653 841.455742 262.639008 841.455742 286.051483zM298.967932 354.262423c0 59.887965 36.670202 105.317692 94.005838 105.317692 57.801951 0 90.33981-42.329229 90.33981-99.658664 0-70.26843-44.376798-106.906387-92.978953-106.906387C339.278117 253.015064 298.967932 291.239235 298.967932 354.262423zM436.298878 112.546414l-41.798424 0 192.646299 347.033701 42.356514 0L436.298878 112.546414zM632.050635 113.572059c-50.622439 0-90.868134 38.196886-91.393979 101.220075 0 59.883005 36.630515 105.378462 93.940107 105.378462 57.896206 0 90.432825-42.356514 90.432825-99.664865C725.030828 150.2435 680.559775 113.572059 632.050635 113.572059zM391.387555 416.723801c-23.210323 0-34.089348-26.844106-34.089348-60.407609 0-35.117473 11.904669-60.410089 34.623873-60.410089 22.192119 0 33.063703 22.678277 33.063703 60.410089C424.985784 390.373295 415.659488 416.723801 391.387555 416.723801zM633.629408 277.321723c-23.798177 0-34.116632-26.885032-34.116632-60.448535-0.525844-35.085227 11.340379-60.410089 34.116632-60.410089 22.159874 0 33.004174 22.719204 33.004174 60.410089C666.634822 250.936491 657.874057 277.321723 633.629408 277.321723z"  horiz-adv-x="1024" />

    
    <glyph glyph-name="star" unicode="&#58945;" d="M1079.268 408.86l-361.721 69.328-177.872 321.785-177.872-321.785-361.721-69.328 251.821-268.205-45.72-364.627 333.492 156.063 333.492-156.063-45.693 364.627 251.793 268.205zM830.27-168.649l-276.452 145.519-304.737-145.519 55.351 304.432-221.405 249.081 332.108 55.351 110.703 276.757 166.054-276.757 304.432-55.351-221.073-250.022 55.019-303.491z"  horiz-adv-x="1080" />

    
    <glyph glyph-name="liwu" unicode="&#58963;" d="M847.6869-56.460528 539.677874-56.460528 539.677874 301.808182l308.009026 0L847.6869-56.460528 847.6869-56.460528zM176.464549 301.808182l307.257919 0 0-358.26871-307.257919 0L176.464549 301.808182 176.464549 301.808182zM119.967814 466.57276l363.754654 0 0-109.719914-363.754654 0L119.967814 466.57276 119.967814 466.57276zM903.430482 356.852846 539.677874 356.852846 539.677874 466.57276l363.753631 0L903.431505 356.852846 903.430482 356.852846zM281.670659 660.181269c69.530586 0 142.205792-80.456427 181.937702-138.52189l-94.776573 0c-65.22656 0-137.201825 33.813107-137.201825 94.963839C231.629963 646.753445 247.026628 660.181269 281.670659 660.181269L281.670659 660.181269zM742.473627 660.181269c34.561144 0 50.039673-14.300704 50.039673-44.429909 0-61.147662-69.408813-94.091982-134.63435-94.091982l-94.731548 0C602.917174 579.724843 672.861176 660.181269 742.473627 660.181269L742.473627 660.181269zM959.386912 466.57276c0 30.397311-25.043373 55.044664-55.95643 55.044664l-95.272877 0c24.654516 23.963785 40.311101 55.487755 40.311101 94.133937 0 47.680952-27.856441 99.474572-105.995079 99.474572-102.843296 0-188.725292-107.688651-229.118258-168.095439-40.311101 60.405765-128.923278 168.095439-231.68471 168.095439-78.138638 0-106.032942-51.79362-106.032942-99.474572 0-38.646182 16.077164-70.170153 41.234123-94.133937l-96.903004 0c-30.874171 0-55.955406-24.647353-55.955406-55.044664l0-164.764578 56.413847 0 0-358.26871c0-30.397311 25.081235-55.023174 56.038294-55.023174l671.222351 0c30.913057 0 55.955406 24.62484 55.955406 55.023174L903.64333 301.808182l55.745628 0L959.388958 466.57276 959.386912 466.57276z"  horiz-adv-x="1024" />

    
    <glyph glyph-name="upload" unicode="&#58921;" d="M768-29.142857q0 14.857143-10.857143 25.714286t-25.714286 10.857143-25.714286-10.857143-10.857143-25.714286 10.857143-25.714286 25.714286-10.857143 25.714286 10.857143 10.857143 25.714286zm146.285714 0q0 14.857143-10.857143 25.714286t-25.714286 10.857143-25.714286-10.857143-10.857143-25.714286 10.857143-25.714286 25.714286-10.857143 25.714286 10.857143 10.857143 25.714286zm73.142857 128l0-182.857143q0-22.857143-16-38.857143t-38.857143-16l-841.142857 0q-22.857143 0-38.857143 16t-16 38.857143l0 182.857143q0 22.857143 16 38.857143t38.857143 16l244 0q12-32 40.285714-52.571429t63.142857-20.571429l146.285714 0q34.857143 0 63.142857 20.571429t40.285714 52.571429l244 0q22.857143 0 38.857143-16t16-38.857143zm-185.714286 370.285714q-9.714286-22.857143-33.714286-22.857143l-146.285714 0 0-256q0-14.857143-10.857143-25.714286t-25.714286-10.857143l-146.285714 0q-14.857143 0-25.714286 10.857143t-10.857143 25.714286l0 256-146.285714 0q-24 0-33.714286 22.857143-9.714286 22.285714 8 39.428571l256 256q10.285714 10.857143 25.714286 10.857143t25.714286-10.857143l256-256q17.714286-17.142857 8-39.428571z"  horiz-adv-x="1024" />

    
    <glyph glyph-name="38freetag" unicode="&#58904;" d="M488.96 307.00416c0-11.34592-8.66304-18.6368-23.26528-18.6368l-11.53024 0 0 35.75808c2.12992 0.38912 6.16448 0.96256 13.25056 0.96256C480.8704 324.8832 488.96 318.92352 488.96 307.00416zM838.81984 293.15968c0-24.61696-9.60512-47.77984-26.99264-65.16736l-38.99392-38.99392 0-55.13216c0-50.81088-41.34912-92.16-92.13952-92.16l-55.15264 0-38.99392-38.99392c-17.36704-17.38752-40.50944-26.99264-65.14688-26.99264s-47.77984 9.60512-65.18784 27.0336l-38.95296 38.93248-55.15264 0c-24.61696 0-47.75936 9.58464-65.16736 26.99264-17.408 17.42848-26.97216 40.5504-26.97216 65.16736l0 55.17312-38.99392 38.97344c-17.408 17.408-26.99264 40.5504-26.99264 65.16736s9.60512 47.77984 26.99264 65.16736l38.99392 38.97344 0 55.11168c0 50.81088 41.34912 92.16 92.13952 92.16l55.13216 0 39.0144 39.0144c17.36704 17.38752 40.50944 26.99264 65.14688 26.99264s47.77984-9.60512 65.18784-27.0336l38.95296-38.93248 55.15264 0c24.59648 0 47.73888-9.58464 65.14688-26.97216 17.42848-17.44896 26.99264-40.57088 26.99264-65.18784l0-55.13216 38.99392-38.99392C829.21472 340.91904 838.81984 317.77664 838.81984 293.15968zM403.08736 345.83424l-79.17568 0 0-129.536 29.40928 0 0 52.08064 46.51008 0 0 23.83872-46.51008 0 0 29.5936 49.78688 0L403.10784 345.83424zM522.9568 216.29824c-2.49856 4.99712-6.51264 21.9136-10.56768 36.51584-3.25632 11.91936-8.25344 20.56192-17.3056 24.20736l0 0.57344c11.14112 4.03456 22.87616 15.36 22.87616 31.90784 0 11.91936-4.23936 20.95104-11.91936 27.09504-9.216 7.29088-22.67136 10.19904-41.90208 10.19904-15.5648 0-29.5936-1.16736-39.0144-2.70336l0-127.7952 29.02016 0L454.144 267.232l8.84736 0c11.91936-0.18432 17.48992-4.608 20.95104-20.76672 3.85024-15.95392 6.92224-26.5216 9.0112-30.16704L522.9568 216.29824zM621.6704 240.32128l-53.248 0 0 30.74048 47.67744 0 0 23.83872-47.67744 0 0 26.91072 50.56512 0 0 24.02304-79.95392 0 0-129.536 82.6368 0L621.6704 240.32128zM724.25472 240.32128l-53.248 0 0 30.74048 47.67744 0 0 23.83872-47.67744 0 0 26.91072 50.56512 0 0 24.02304-79.95392 0 0-129.536 82.6368 0L724.25472 240.32128z"  horiz-adv-x="1024" />

    
    <glyph glyph-name="location" unicode="&#58886;" d="M526.759797-53.652123C522.437082-58.799567 516.066765-61.785653 509.326742-61.785653 502.586719-61.785653 496.216402-58.799567 491.893687-53.652123 479.352126-38.664815 184.98092 314.802455 184.98092 487.654178 184.98092 666.506513 330.474408 812 509.326742 812 688.179076 812 833.701003 666.506513 833.701003 487.654178 833.701003 314.802455 539.301358-38.664815 526.759797-53.652123ZM509.326742 766.497737C355.55753 766.497737 230.483184 641.42339 230.483184 487.654178 230.483184 353.650012 445.765768 76.029328 509.326742-3.030855 572.887716 76.029328 788.198739 353.650012 788.198739 487.654178 788.198739 641.42339 663.095954 766.497737 509.326742 766.497737ZM513.649457 378.420307C439.42389 378.420307 379.019635 438.796123 379.019635 512.993251 379.019635 587.218819 439.42389 647.594634 513.649457 647.594634 587.846585 647.594634 648.222401 587.218819 648.222401 512.993251 648.222401 438.796123 587.846585 378.420307 513.649457 378.420307ZM513.649457 602.092371C464.507013 602.092371 424.521899 562.135696 424.521899 512.993251 424.521899 463.879246 464.507013 423.922571 513.649457 423.922571 562.763463 423.922571 602.720138 463.879246 602.720138 512.993251 602.720138 562.135696 562.763463 602.092371 513.649457 602.092371ZM358.9702 52.339712C371.341128 54.757019 383.285472 46.737246 385.70278 34.394757 388.148527 22.080707 380.128753 10.136362 367.786264 7.662177 277.634904-10.112145 230.483184-41.906851 230.483184-64.117644 230.483184-98.699364 339.119838-148.922487 509.326742-148.922487 679.562085-148.922487 788.198739-98.699364 788.198739-64.117644 788.198739-42.248118 741.928625-10.737801 653.512039 7.150276 641.197989 9.652901 633.235093 21.654123 635.737718 33.968173 638.211903 46.282223 650.241564 54.301997 662.527175 51.742495 771.306024 29.730775 833.701003-12.501014 833.701003-64.117644 833.701003-149.661899 670.51851-194.424751 509.326742-194.424751 348.134974-194.424751 184.98092-149.661899 184.98092-64.117644 184.98092-11.960674 248.3997 30.498625 358.9702 52.339712Z"  horiz-adv-x="1024" />

    
    <glyph glyph-name="folder" unicode="&#58922;" d="M960 684 576 684 576 748c0 35.344-28.624 64-64 64L64 812C28.624 812 0 783.344 0 748l0-896c0-35.376 28.624-64 64-64l896 0c35.376 0 64 28.624 64 64L1024 620C1024 655.376 995.376 684 960 684zM992-148c0-17.664-14.336-32-32-32L64-180c-17.664 0-32 14.336-32 32L32 556l960 0L992-148zM992 588 32 588 32 748c0 17.664 14.336 32 32 32l448 0c17.664 0 32-14.336 32-32l0-96 416 0c17.664 0 32-14.336 32-32L992 588zM240 76l544 0c8.848 0 16 7.152 16 16s-7.152 16-16 16L240 108c-8.848 0-16-7.152-16-16S231.152 76 240 76zM240 172l544 0c8.848 0 16 7.152 16 16s-7.152 16-16 16L240 204c-8.848 0-16-7.152-16-16S231.152 172 240 172zM240 268l256 0c8.848 0 16 7.152 16 16s-7.152 16-16 16L240 300c-8.848 0-16-7.152-16-16S231.152 268 240 268z"  horiz-adv-x="1024" />

    
    <glyph glyph-name="lianjie" unicode="&#58940;" d="M351.942972 75.622111 736.207714 459.886852C754.856169 478.535307 754.856169 509.012212 736.207714 527.660667 717.559259 546.309122 687.082354 546.309122 668.433899 527.660667L284.169158 143.395925C265.520702 124.74747 265.520702 94.270566 284.169158 75.622111L284.169158 75.622111C302.71105 56.973655 333.294517 56.973655 351.942972 75.622111L351.942972 75.622111ZM478.752468 142.117174C485.465912 132.739665 486.638101 122.829343 486.638101 117.288088 486.638101 110.681207 485.039662 97.893694 474.276839 87.130872L272.873522-114.272445C262.110699-125.035268 249.42975-126.633707 242.716306-126.633707 236.109424-126.633707 223.321912-125.035268 212.559089-114.272445L98.004293 0.282351C87.24147 11.045174 85.643031 23.726124 85.643031 30.439568 85.643031 37.153012 87.24147 49.833961 98.004293 60.596784L299.40761 262.000101C310.170433 272.762924 322.851382 274.361363 329.564826 274.361363 334.25358 274.361363 341.926088 273.508862 349.705158 269.35292L410.872091 330.519854C360.787668 371.866143 285.980722 369.095516 239.093177 322.314533L37.68986 120.911216C-12.074875 71.146481-12.074875-10.160784 37.68986-59.925519L152.244657-174.480315C202.009392-224.24505 283.316657-224.24505 333.081392-174.480315L534.484709 26.923002C582.544442 74.982735 584.142881 152.666872 539.280026 202.751294L478.752468 142.117174 478.752468 142.117174ZM986.203577 659.372042 871.64878 773.926839C821.884046 823.691574 740.57678 823.691574 690.812046 773.926839L489.408728 572.523522C442.627746 525.74254 439.857119 450.935594 481.203408 400.744608L542.370341 461.911542C538.2144 469.797174 537.361899 477.469681 537.361899 482.051873 537.361899 488.658755 538.960338 501.446267 549.723161 512.20909L751.126478 713.612407C761.889301 724.375229 774.57025 725.973668 781.283694 725.973668 787.890576 725.973668 800.678088 724.375229 811.440911 713.612407L925.995707 599.05761C936.75853 588.294787 938.356969 575.613838 938.356969 568.900394 938.356969 562.293512 936.75853 549.506 925.995707 538.743177L724.59239 337.33986C713.829567 326.577038 701.148618 324.978599 694.435174 324.978599 688.893919 324.978599 678.983597 326.150787 669.606088 332.864231L609.07853 272.336673C659.162953 227.473818 736.740527 228.965694 784.906823 277.13199L986.31014 478.535307C1035.968312 528.300042 1035.968312 609.71387 986.203577 659.372042L986.203577 659.372042Z"  horiz-adv-x="1024" />

    
    <glyph glyph-name="weixin" unicode="&#58934;" d="M795.362133 243.949867c18.683733 0 31.138133-12.456533 31.138133-31.137067 0-18.683733-12.455467-31.1392-31.138133-31.1392s-31.138133 12.456533-31.138133 31.1392C764.224 231.493333 776.679467 243.949867 795.362133 243.949867zM645.896533 212.8128c0-18.683733-12.455467-31.1392-31.138133-31.1392s-37.3664 12.456533-37.3664 31.1392c0 18.6816 12.455467 31.137067 31.138133 31.137067S645.896533 231.493333 645.896533 212.8128zM608.530133 536.654933c31.138133 0 56.050133-24.912 56.050133-49.821867 0-31.138133-24.910933-49.821867-56.050133-49.821867s-49.821867 24.910933-49.821867 49.821867S583.620267 536.654933 608.530133 536.654933zM315.826133 536.654933c31.1392 0 49.822933-24.912 49.822933-49.821867 0-31.138133-24.910933-49.821867-49.822933-49.821867-31.138133 0-49.821867 24.910933-49.821867 49.821867S284.688 536.654933 315.826133 536.654933zM427.9264 156.762667c0 143.237333 124.555733 255.336533 274.021333 255.336533 43.5936 0 87.188267-12.455467 124.554667-31.138133-12.455467 180.603733-180.603733 317.614933-379.8912 317.614933C241.093333 704.8032 72.945067 549.1104 72.945067 356.049067c0-80.96 31.138133-161.92 87.188267-217.970133L91.627733-11.387733l174.376533 62.277333c56.050133-18.683733 118.327467-37.3664 186.832-37.3664 6.228267 0 12.455467 0 18.683733 0C446.609067 57.118933 427.9264 106.939733 427.9264 156.762667L427.9264 156.762667zM508.8864-30.0704c-18.683733 0-37.3664-6.2272-56.050133-6.2272-62.277333 0-124.554667 12.456533-186.832 37.3664L10.666667-86.120533l99.643733 217.973333c-56.049067 68.504533-80.96 143.237333-80.96 224.197333 0 217.9712 186.832 392.347733 423.486933 392.347733 236.654933 0 423.488-174.376533 423.488-392.347733l0 0c62.277333-49.821867 105.870933-118.3264 105.870933-199.287467 0-49.822933-18.683733-99.643733-43.5936-143.239467L1013.333333-148.397867 820.274133-79.893333c-37.3664-18.6816-74.733867-24.910933-112.0992-24.910933C627.213867-98.574933 558.708267-73.665067 508.8864-30.0704L508.8864-30.0704zM701.946667 368.5056c-130.781867 0-230.426667-93.416533-230.426667-211.742933 0-118.327467 105.872-211.744 230.426667-211.744 37.3664 0 74.7328 12.456533 112.0992 24.910933l105.872-37.3664-37.365333 87.189333c31.138133 37.3664 56.049067 80.96 56.049067 130.782933C938.600533 275.089067 832.7296 368.5056 701.946667 368.5056L701.946667 368.5056z"  horiz-adv-x="1024" />

    
    <glyph glyph-name="arrows" unicode="&#58884;" d="M533.931 60.412c-12.692-12.692-33.188-12.774-45.779-0.184l-413.771 413.772c-12.591 12.591-12.508 33.087 0.184 45.779v0c12.692 12.692 33.188 12.774 45.779 0.184l413.772-413.772c12.589-12.591 12.507-33.087-0.185-45.779v0zM947.852 518.737c12.692-12.692 12.774-33.188 0.184-45.779l-413.772-413.771c-12.591-12.591-33.087-12.508-45.779 0.184v0c-12.692 12.692-12.774 33.188-0.184 45.779l413.771 413.771c12.592 12.59 33.088 12.508 45.78-0.184v0z"  horiz-adv-x="1024" />

    
    <glyph glyph-name="shequ" unicode="&#58987;" d="M848.95887 744.262246 172.798043 744.262246c-58.963926 0-106.762559-47.798633-106.762559-106.762559l0-676.160827c0-58.95881 47.798633-106.762559 106.762559-106.762559L848.95887-145.423699c58.959833 0 106.762559 47.803749 106.762559 106.762559L955.721429 637.500711C955.721429 696.463614 907.918703 744.262246 848.95887 744.262246zM920.133909-48.453157c0-33.892925-27.479865-61.381999-61.383022-61.381999L163.015236-109.835156c-33.906228 0-61.392232 27.489074-61.392232 61.381999L101.623004 647.287611c0 33.901111 27.486004 61.388139 61.392232 61.388139l695.734628 0c33.903158 0 61.383022-27.486004 61.383022-61.388139L920.132886-48.453157zM803.510772 238.922946c0-47.02092-26.134217-91.558275-69.976748-119.491465 0.591471-4.517897 5.240351-13.910824 10.313903-20.62576 3.744277-4.892427 4.725628-11.399631 2.52859-17.177218-2.190899-5.785773-7.141654-10.04375-13.19758-11.268648-3.744277-0.76441-7.29822-1.104147-10.729365-1.104147-20.922519 0-35.31839 12.720719-43.936675 20.297278-1.079588 0.972141-2.068102 1.876744-3.03308 2.701528-18.062378-3.883447-43.389206-6.767124-60.365856-6.767124-24.484647 0-47.829332 3.943822-69.315692 10.894118-14.119579-1.780553-28.445866-2.805906-42.754756-2.805906-25.717731 0-66.26317 4.803399-92.588745 10.851139-2.257413-1.62501-5.668093-4.647857-8.338922-6.994298-12.390191-10.920724-31.974225-28.176736-59.915601-28.176736-4.555759 0-9.304923 0.451278-14.304797 1.452071-6.051833 1.242294-11.034311 5.525853-13.201673 11.30344-2.173502 5.7694-1.204431 12.276604 2.540869 17.203824 8.306176 10.842952 18.889209 30.791284 17.220197 39.947827-0.211824 1.164522-0.49835 1.659803-1.723248 2.416026-64.555272 40.104393-103.07968 104.754832-103.07968 172.97968 0 121.845069 122.644271 220.958414 273.392624 220.958414 149.291165 0 270.849708-97.252974 273.177729-217.491453C793.414833 294.897795 803.510772 267.890698 803.510772 238.922946L803.510772 238.922946zM672.081417 128.27694c1.416256 0.356111 4.109598 0.668219 5.551436 0.668219 8.115841 0 14.46648-3.986801 20.018939-8.532327-0.044002 2.285043 0.119727 4.544503 0.563842 6.80294 1.660826 9.200546 6.768147 16.691147 14.761192 21.659299 34.745339 21.599947 54.66911 54.416354 54.66911 90.046852 0 64.805982-68.421322 117.54923-152.532999 117.54923-84.111676 0-152.551418-52.743248-152.551418-117.54923 0-64.831564 68.439742-117.571742 152.551418-117.571742C630.804315 121.352227 656.886343 124.523453 672.081417 128.27694L672.081417 128.27694zM503.042489 499.651133c-130.986263 0-237.526765-83.030042-237.526765-185.092555 0-55.748698 32.212656-109.007693 86.130659-142.518924 9.797134-6.054903 16.036231-15.213493 18.080797-26.464745 1.880837-10.311857-0.109494-21.276582-3.675716-31.363312 3.997034 2.892887 8.049327 6.333242 12.33698 10.113335 10.344602 9.131985 21.999037 19.505239 37.137829 15.742543 17.428951-4.299933 44.167942-8.070816 66.627467-9.730619-34.237779 27.79402-55.457056 66.204841-55.457056 108.587114 0 84.58956 84.518952 153.414065 188.41523 153.414065 44.908816 0 86.188988-12.912078 118.586862-34.358529C708.529537 439.123594 614.800829 499.651133 503.042489 499.651133L503.042489 499.651133zM503.042489 499.651133"  horiz-adv-x="1024" />

    
    <glyph glyph-name="triangle-bottom" unicode="&#58905;" d="M523.955-32.173l323.744 512c6.24 9.856 6.624 22.336 0.992 32.512-5.632 10.24-16.384 16.576-28.033 16.576h-647.328c-11.647 0-22.4-6.336-28.033-16.576-2.656-4.8-3.968-10.112-3.968-15.424 0-5.952 1.664-11.904 4.929-17.088l323.616-512c5.856-9.28 16.064-14.911 27.040-14.912s21.184 5.632 27.040 14.912z"  horiz-adv-x="1024" />

    
    <glyph glyph-name="triangle-right" unicode="&#58906;" d="M817.088 315.040l-512 323.744c-9.856 6.24-22.336 6.624-32.512 0.992-10.24-5.632-16.576-16.384-16.576-28.032v-647.328c0-11.648 6.336-22.4 16.576-28.032 4.8-2.656 10.112-3.968 15.424-3.968 5.952 0 11.904 1.664 17.088 4.928l512 323.616c9.28 5.856 14.912 16.064 14.912 27.040s-5.632 21.184-14.912 27.040z"  horiz-adv-x="1024" />

    
    <glyph glyph-name="triangle-left" unicode="&#58907;" d="M270.912 315.040l512 323.744c9.856 6.24 22.336 6.624 32.512 0.992 10.24-5.632 16.576-16.384 16.576-28.032v-647.328c0-11.648-6.336-22.4-16.576-28.032-4.8-2.656-10.112-3.968-15.424-3.968-5.952 0-11.904 1.664-17.088 4.928l-512 323.616c-9.28 5.856-14.912 16.064-14.912 27.040s5.632 21.184 14.912 27.040z"  horiz-adv-x="1024" />

    
    <glyph glyph-name="1" unicode="&#58954;" d="M909.8461 656.586394 546.480302 656.586394c-8.197706 13.474896-19.050891 26.184359-31.822776 38.937824-39.497573 39.502689-77.789691 63.868633-142.827963 31.342846-25.425066-12.670577-44.333718-39.179324-58.496276-70.279646L113.774253 656.587418c-55.144948 0-99.829659-44.680619-99.829659-99.819426l0-208.91103c-3.903913-16.761756-3.742231-31.756261 0-45.425585l0-344.599386c0-55.120388 44.684712-99.815333 99.829659-99.815333L909.856333-141.983343c55.148018 0 102.664218 44.694945 102.664218 99.824543L1012.520551 556.765945C1012.511341 611.905776 965.004351 656.586394 909.8461 656.586394L909.8461 656.586394zM410.150334 690.883525c42.97579 19.748786 78.95933 11.626805 95.225805-4.6366 6.701632-6.749728 11.899004-17.027815 14.425547-29.652344L378.802372 656.594581C390.30638 673.940644 401.183102 686.769834 410.150334 690.883525L410.150334 690.883525zM355.25712 616.660056l163.338089 0c-1.842974-8.212032-4.479011-16.71366-8.573259-25.638937-14.353916-31.157627-131.884726-84.925205-190.762695-110.255103-0.431835 0.717338-9.005095 13.703093-19.378349 19.365046C313.028343 530.733035 333.88844 577.094946 355.25712 616.660056L355.25712 616.660056zM53.876048 432.039245c27.875884 15.363919 62.235436 30.607088 104.265692 44.864814L53.876048 476.904059l0 39.926338c0 55.134715 44.689828 99.829659 99.819426 99.829659l59.894112 0 0-122.703623c56.582693 19.967774 45.116547 82.164325 44.684712 122.703623l40.006156 0c-13.721513-43.759643-20.309558-88.9908-23.159466-115.018593-6.236028-2.455935-20.309558-14.586207-24.094768-24.094768-44.134173-4.836145-143.455249-20.195971-197.150172-63.409169L53.876048 432.039245 53.876048 432.039245zM53.876048 319.724227c1.871627 7.356548 4.2897 14.913665 7.90811 22.793122 14.316054 31.195489 131.87961 84.928275 190.762695 110.268406 4.018523-7.347339 14.975063-16.956184 19.378349-19.373233-25.343201-58.892295-79.114872-176.428222-110.268406-190.757578-42.97579-19.730367-78.95933-11.613502-95.226828 4.65502-5.342682 5.329379-9.670244 13.014408-12.552897 22.181185L53.877071 319.724227 53.876048 319.724227zM973.059817 476.905082 589.598332 476.905082c-61.755506 0-150.086274-7.546883-100.640118-59.899228l484.101603 0 0-419.254689c0-55.120388-47.985898-99.815333-103.133915-99.815333L273.486768-102.064168 273.486768 220.863638c-15.007809-18.689664-34.544771-39.213094-59.897182-60.534701l0-262.392082-59.894112 0c-55.129598 0-99.819426 44.694945-99.819426 99.815333L53.876048 241.444373c1.130753-1.140986 2.104941-2.285043 3.27765-3.438309 39.464827-39.469943 77.789691-63.86454 142.78396-31.354102 56.544831 28.285207 81.296561 124.70828 91.722004 188.482769 6.468318-53.363372 20.34742-119.744221 50.996464-142.55167 39.579437-29.424146 38.734186-108.378359 36.155455-126.436644 28.378327 28.392654 54.155411 54.17383 54.155411 54.17383s-11.351536 87.23276-47.730071 112.273063c-33.728172 23.178909-69.170382 104.892979-81.733513 143.184073 4.527107 3.434216 10.335393 8.192589 13.379729 13.374612 38.292118-12.558014 77.206406-47.996131 100.408851-81.728396 24.993231-36.387745 72.328305-67.692728 72.328305-67.692728s25.820062 25.781176 54.17076 54.17997c-18.053168-2.593058-57.08616 16.515139-86.487793 56.094576-22.816658 30.66337-46.408983 44.528146-99.790774 51.006697 63.798025 10.397814 160.211888 35.166941 188.496072 91.664699 12.33084 24.688285 16.419971 45.468564 14.652721 63.97301l309.262576 0c55.148018 0 103.133915-44.689828 103.133915-99.824543L973.057771 476.905082 973.059817 476.905082zM422.481174 21.120408M348.313987-0.001655c-5.154393 4.040013-13.094226 8.497535-19.641339 10.586103l5.15337 10.447956c7.243985-3.344165 14.3488-7.104815 20.199041-10.587126L348.313987-0.001655zM343.856465-66.308827c-5.432733 3.621481-9.471722 5.571902-14.347776 7.104815 4.178159 7.242961 9.751085 25.074072 13.372565 47.918359 3.481288-2.785439 6.825452-4.317329 11.282974-5.710049C349.568561-33.155752 346.224396-48.478739 343.856465-66.308827zM351.657128 32.732887c-4.596691 5.0142-10.864442 10.030447-17.969257 14.069437l7.383154 8.774851c6.40692-4.040013 12.675694-8.497535 18.386766-13.094226L351.657128 32.732887zM363.079272 14.346121c-2.508123 2.924609-5.570879 5.293563-8.635681 6.965645 5.29254 3.621481 12.536524 12.814864 15.740496 18.944468 4.178159 7.801686 6.547113 13.094226 7.661494 17.551748 4.736884-1.949398 7.939833-3.064802 12.259208-4.317329 2.088568-0.557702 2.228761-2.089591-0.140193-2.64627-1.531889-0.279363-2.924609-2.368954-6.128581-7.661494l21.451568 0c25.074072 0 37.331233 1.252527 40.256866 1.949398l-1.39272-90.962711c-0.13917-14.765285-3.761674-20.198018-25.770943-21.8701-0.556679 4.178159-2.367931 8.358365-6.129604 12.815887 17.552771-0.417509 21.035082 2.785439 21.174252 12.814864l1.113357 75.778894-56.415894 0C374.08493 27.718687 367.119285 18.664473 363.079272 14.346121zM400.689868-2.788118c11.979846 0.140193 21.451568 0.557702 28.278043 1.532913l0-11.562337c-6.826476 0.836041-16.298198 1.113357-28.278043 1.25355l0-26.327622 12.120039 0.278339c0.416486 7.383154 0.278339 15.462157-0.140193 19.363 3.482311-0.418532 8.358365-0.556679 11.143805-0.279363 2.089591 0.279363 2.368954-1.113357 0.279363-1.949398-0.836041-0.279363-0.975211-9.473769 0-25.491581-7.661494 0-14.347776 0-29.113061-0.417509-16.298198-0.418532-20.058848-0.696872-26.606984-1.393743 0.836041 3.900843 1.113357 25.352411 0.13917 29.114085 4.736884-0.696872 7.242961-0.836041 11.840676-0.696872 2.228761 0.140193 2.367931-1.25355 1.113357-2.088568-1.811252-1.115404-2.228761-1.950422-2.228761-3.622504l0-13.094226 11.423167 0.13917 0 26.467815c-13.929244 0-24.51637-0.417509-32.177863-1.25355L358.482581-1.255205c7.800663-0.975211 18.248619-1.532913 32.177863-1.532913l0 13.791098-8.358365 0c-2.785439-5.15337-4.318352-7.242961-7.104815-10.446933-2.367931 1.811252-5.432733 3.342118-8.358365 4.178159 6.129604 5.850242 11.840676 14.905478 14.3488 23.959691 3.481288-1.672082 5.15337-2.508123 7.800663-3.342118 2.785439-0.836041 2.925632-1.672082 0.975211-2.228761-0.556679-0.140193-1.531889-1.115404-2.924609-3.622504l13.232372 0c13.372565 0 18.388812 0.557702 22.427802 1.115404l0-10.447956c-5.432733 0.696872-8.915044 0.836041-22.010293 0.836041L400.688845-2.788118zM489.571175 18.385111c-7.939833-0.13917-14.208607-0.556679-18.944468-1.115404l0 11.979846c4.876054-0.695848 11.003612-0.975211 18.944468-1.113357 0 16.297175-0.278339 22.845311-1.25355 29.113061 4.736884-1.113357 8.915044-1.39272 12.398378-1.113357 4.597715 0.417509 4.875031-0.836041 2.089591-3.621481-1.949398-1.950422-2.508123-3.900843-2.508123-6.129604l0-18.248619c8.219195 0.13917 14.627139 0.417509 19.641339 1.113357l0-11.979846c-5.0142 0.557702-11.422144 0.976234-19.641339 0.976234l0-22.010293c5.850242 2.228761 11.70253 4.736884 17.552771 7.383154-0.557702-3.761674-0.279363-7.801686 0.836041-11.283997-6.268774-2.367931-12.398378-4.735861-18.388812-7.102768l0-37.611619c0-10.587126-2.5071-12.675694-22.287609-14.904455 0.279363 3.76065-1.113357 8.497535-4.735861 14.347776 13.929244-2.367931 16.297175-0.975211 16.297175 4.318352L489.571175-19.224462c-6.686283-2.925632-12.814864-5.851265-18.386766-8.637728-0.279363 4.876054-1.811252 10.307763-3.482311 15.183817 7.242961 1.115404 14.627139 2.925632 21.8701 5.154393L489.572198 18.385111zM548.216853 59.199679c5.711072-2.367931 12.536524-4.317329 16.994046-5.0142 2.089591-0.278339 2.508123-1.671059-1.25355-2.924609-2.64627-0.836041-5.432733-4.180206-11.282974-16.8559l12.955056 0c7.104815 0 14.486946 0.417509 20.894889 0.975211-0.557702-5.571902-0.696872-11.840676-0.696872-21.313422l0-59.202357c0-9.890254 0.13917-15.461133 0.975211-21.311375l-12.675694 0 0 10.726296-39.143509 0 0-12.259208-12.815887 0c0.836041 7.104815 1.115404 11.840676 1.115404 21.451568l0 60.874439c0 9.054213-0.13917 15.462157-0.975211 21.034059 6.268774-0.556679 13.093203-0.836041 19.222807-0.975211C545.012881 42.623142 547.241642 51.678378 548.216853 59.199679zM574.125943-5.851896l0 30.505781-39.143509 0 0-30.505781L574.125943-5.851896zM534.983457-15.185472l0-30.785144 39.143509 0 0 30.785144L534.983457-15.185472zM628.877941 18.385111c-7.939833-0.13917-14.208607-0.556679-18.944468-1.115404l0 11.979846c4.876054-0.695848 11.003612-0.975211 18.944468-1.113357 0 16.297175-0.278339 22.845311-1.25355 29.113061 4.736884-1.113357 8.915044-1.39272 12.397355-1.113357 4.597715 0.417509 4.876054-0.836041 2.089591-3.621481-1.949398-1.950422-2.508123-3.900843-2.508123-6.129604l0-18.248619c8.219195 0.13917 14.627139 0.417509 19.641339 1.113357l0-11.979846c-5.0142 0.557702-11.422144 0.976234-19.641339 0.976234l0-22.010293c5.850242 2.228761 11.70253 4.736884 17.552771 7.383154-0.557702-3.761674-0.279363-7.801686 0.836041-11.283997-6.269797-2.367931-12.398378-4.735861-18.388812-7.102768l0-37.611619c0-10.587126-2.5071-12.675694-22.287609-14.904455 0.279363 3.76065-1.113357 8.497535-4.735861 14.347776 13.929244-2.367931 16.297175-0.975211 16.297175 4.318352L628.876917-19.224462c-6.686283-2.925632-12.815887-5.851265-18.386766-8.637728-0.279363 4.876054-1.811252 10.307763-3.482311 15.183817 7.242961 1.115404 14.627139 2.925632 21.8701 5.154393L628.877941 18.385111zM687.523619 59.199679c5.711072-2.367931 12.536524-4.317329 16.994046-5.0142 2.089591-0.278339 2.508123-1.671059-1.25355-2.924609-2.64627-0.836041-5.432733-4.180206-11.282974-16.8559l12.955056 0c7.104815 0 14.486946 0.417509 20.894889 0.975211-0.556679-5.571902-0.696872-11.840676-0.696872-21.313422l0-59.202357c0-9.890254 0.140193-15.461133 0.975211-21.311375l-12.675694 0 0 10.726296-39.143509 0 0-12.259208-12.815887 0c0.836041 7.104815 1.115404 11.840676 1.115404 21.451568l0 60.874439c0 9.054213-0.13917 15.462157-0.975211 21.034059 6.268774-0.556679 13.094226-0.836041 19.222807-0.975211C684.320671 42.623142 686.549431 51.678378 687.523619 59.199679zM713.433732-5.851896l0 30.505781-39.143509 0 0-30.505781L713.433732-5.851896zM674.290223-15.185472l0-30.785144 39.143509 0 0 30.785144L674.290223-15.185472zM824.462454 48.752746l-34.545794-106.564038-17.969257 0L739.629347 48.891915l17.690918 0 14.068414-50.14712c3.900843-13.511735 7.383154-26.606984 10.030447-39.422871l0.417509 0c2.5071 12.676717 6.268774 26.188452 10.307763 39.283702l15.044648 50.14712L824.462454 48.752746zM836.027861 48.752746l16.158005 0 0-106.564038-16.158005 0L836.027861 48.752746zM874.336352 47.499196c6.40692 1.115404 14.904455 2.089591 25.90909 2.089591 13.095249 0 22.984481-2.785439 29.392424-8.497535 5.990434-5.154393 9.611915-13.233396 9.611915-22.984481 0-25.90909-20.617573-34.825157-39.84038-34.825157-3.342118 0-6.40692 0.13917-9.054213 0.696872l0-41.789779-16.019859 0L874.335329 47.499196zM890.35621-3.066457c2.367931-0.696872 5.293563-0.836041 9.054213-0.836041 14.765285 0 23.680329 7.661494 23.680329 21.313422 0 12.955056-8.915044 19.501146-21.8701 19.501146-5.0142 0-8.774851-0.556679-10.864442-0.975211L890.35621-3.066457z"  horiz-adv-x="1024" />

    
    <glyph glyph-name="iconfonticon04" unicode="&#58895;" d="M764.330667 483.701333 343.786667 483.701333c-10.965333 0-19.946667-8.938667-19.946667-19.904 0-11.008 8.96-19.946667 19.946667-19.946667l420.544 0c10.986667 0 19.925333 8.938667 19.925333 19.946667C784.256 474.762667 775.317333 483.701333 764.330667 483.701333zM764.330667 350.922667 343.786667 350.922667c-10.965333 0-19.946667-8.96-19.946667-19.946667s8.96-19.904 19.946667-19.904l420.544 0c10.986667 0 19.925333 8.917333 19.925333 19.904S775.317333 350.922667 764.330667 350.922667zM764.330667 218.656 343.786667 218.656c-10.965333 0-19.946667-8.853333-19.946667-19.904 0-10.986667 8.96-19.925333 19.946667-19.925333l420.544 0c10.986667 0 19.925333 8.938667 19.925333 19.925333C784.256 209.781333 775.317333 218.656 764.330667 218.656zM259.690667 218.656l-24.341333 0c-11.008 0-19.882667-8.853333-19.882667-19.904 0-10.986667 8.874667-19.925333 19.882667-19.925333l24.341333 0c11.029333 0 19.946667 8.938667 19.946667 19.925333C279.637333 209.781333 270.72 218.656 259.690667 218.656zM764.330667 86.368 343.786667 86.368c-10.965333 0-19.946667-8.896-19.946667-19.904 0-10.986667 8.96-19.904 19.946667-19.904l420.544 0c10.986667 0 19.925333 8.917333 19.925333 19.904C784.256 77.514667 775.317333 86.368 764.330667 86.368zM259.690667 86.368l-24.341333 0c-11.008 0-19.882667-8.896-19.882667-19.904 0-10.986667 8.874667-19.904 19.882667-19.904l24.341333 0c11.029333 0 19.946667 8.917333 19.946667 19.904C279.637333 77.514667 270.72 86.368 259.690667 86.368zM259.690667 351.477333l-24.341333 0c-11.008 0-19.882667-8.938667-19.882667-19.925333s8.874667-19.925333 19.882667-19.925333l24.341333 0c11.029333 0 19.946667 8.938667 19.946667 19.925333S270.72 351.477333 259.690667 351.477333zM259.690667 484.234667l-24.341333 0c-11.008 0-19.882667-8.896-19.882667-19.904s8.874667-19.904 19.882667-19.904l24.341333 0c11.029333 0 19.946667 8.896 19.946667 19.904C279.637333 475.36 270.72 484.234667 259.690667 484.234667zM903.722667 801.333333 120.277333 801.333333c-32.362667 0-58.688-26.346667-58.688-58.730667l0-885.226667c0-32.384 26.346667-58.709333 58.688-58.709333l783.445333 0c32.341333 0 58.688 26.325333 58.688 58.709333L962.410667 742.602667C962.410667 774.986667 936.064 801.333333 903.722667 801.333333zM920.298667-142.624c0-9.130667-7.424-16.554667-16.554667-16.554667L120.277333-159.178667c-9.152 0-16.554667 7.445333-16.554667 16.554667L103.722667 742.602667c0 9.152 7.424 16.554667 16.554667 16.554667l783.445333 0c9.152 0 16.554667-7.424 16.554667-16.554667L920.277333-142.624zM409.088 614.261333l201.429333 0c15.232 0 27.626667 12.437333 27.626667 27.690667s-12.394667 27.669333-27.626667 27.669333l-201.429333 0c-15.274667 0-27.626667-12.416-27.626667-27.669333S393.813333 614.261333 409.088 614.261333z"  horiz-adv-x="1024" />

    
    <glyph glyph-name="qq" unicode="&#58935;" d="M372.173394-198.003218l-68.755943 0.434905-73.480548 10.1952-51.970652 18.556635-27.570939 21.726837-8.143471 12.744255-5.315052 17.250896c-0.341784 1.274016-0.497327 2.610454-0.497327 3.916193l0 3.543709c0 1.274016 0.155543 2.549056 0.466628 3.76065l0.528026 4.2897c0 1.057075 0.093121 2.113127 0.341784 3.170203l0.994654 14.608719c0.124843 1.429559 0.466628 2.797719 0.963954 4.134157l6.931876 16.909112c0.652869 1.336438 1.52268 2.579755 2.549056 3.667529 0.279363 0.404206 2.89084 3.729951 3.201925 4.134157l4.538363 5.595438c0.715291 0.839111 1.49198 1.647523 2.393513 2.331092l10.102079 7.336082c1.49198 1.212618 3.201925 2.113127 5.03569 2.735297l26.730805 10.31902-15.789615 14.640442-29.093619 36.864606-13.862729 24.524556c-0.652869 0.963954-1.180895 2.020006-1.616824 3.139503l-8.330736 20.297278-30.336936-33.009811-14.733563-9.728572-18.24555-6.216585-9.728572-1.087774c-0.434905-0.062422-2.642177-0.093121-3.108804-0.093121-1.958608 0-3.916193 0.372483-5.78168 1.118474-3.667529 1.461281-8.236592 4.880147-9.977235 8.485255-1.647523 1.647523-3.170203 3.450589-3.792373 5.003967l-8.578376 23.188118-4.569062 36.832883 0.870834 35.217083 11.159154 52.623521 11.935843 33.165354L73.528644 265.505371l32.04688 41.401945 51.16224 47.276746-1.6158 6.869455c-0.311085 1.243317-0.466628 2.549056-0.466628 3.823072l0 16.442484c0 1.367137 0.186242 2.704598 0.528026 4.009314l9.573029 30.150694 8.951883 16.785292 1.554402 14.671141 10.661827 31.020504 3.792373 5.812379 0 14.733563 6.931876 40.84322 14.70184 44.075845 19.395746 40.252773 38.387285 54.768371 30.648021 32.94739 31.984459 27.632337 32.854269 20.204158 64.434521 24.12035 71.397097 12.340049 60.487629 0.963954L606.694709 791.397776l59.555397-14.453177 42.956348-17.002232 27.01119-14.391778 32.885991-22.410406 29.404704-27.13501 23.218818-28.005844 23.592324-40.252773 27.352975-76.899414 7.583722-32.1707 6.402827-42.956348 20.669762-38.201044 9.356089-40.873919 0.124843-6.869455-0.901533-7.148817 0.186242-3.729951c0-1.274016-0.155543-2.549056-0.466628-3.76065l-4.009314-16.878412c-0.311085-1.274016-0.74599-2.517333-1.36816-3.667529l-2.207271-4.2897 54.736649-93.155656 22.565948-54.519708 8.858762-37.641295 4.538363-57.534368-5.408173-35.963073-14.111392-33.973766-14.453177-15.914458c-1.150196-0.994654-2.455935-1.833765-3.854794-2.455935l-6.247284-2.921539c-0.62217-0.279363-3.823072-1.39886-4.445242-1.6158-1.616824-0.559748-3.263323-0.808412-4.973268-0.808412l-3.978614 0c-1.740644 0-3.418866 0.279363-5.066389 0.839111-0.621147 0.217964-3.76065 1.336438-4.351098 1.6158l-4.880147 2.393513c-0.715291 0.373507-3.667529 2.362814-4.320399 2.828418-0.434905 0.311085-3.450589 2.579755-3.853771 2.921539l-10.474562 10.630105-17.655102 26.38902-11.656481-29.093619-38.045501-56.042387 35.279504-18.773576 24.586978-19.053961c0.901533-0.683569 1.740644-1.52268 2.486634-2.393513l10.754948-15.417131 6.590092-22.846334c0.404206-2.175549 0.311085-4.445242-0.248663-6.558369l-0.372483-2.672876c0-1.057075-0.124843-2.14485-0.341784-3.201925l-0.715291-3.450589c-0.341784-1.647523-0.932232-3.201925-1.803066-4.631484l-0.932232-1.616824c-0.466628-1.367137-0.994654-2.921539-1.336438-3.543709L896.573819-151.223798l-17.437138-11.594059-38.916335-15.789615-48.178279-9.884115-69.37709-2.300392-75.656097 8.05035-46.220694 11.127432-54.022381 16.72287-32.388664 1.429559-41.868573-22.877033-45.877887-15.635095-42.024116-5.470595-11.811-0.559748C372.5776-198.003218 372.391359-198.003218 372.173394-198.003218zM167.555134-111.375232l8.423857-17.59268 10.567683-8.828063 31.082926-14.080693 64.21758-12.30935 23.436782-2.393513 66.579371-0.341784 36.056194 2.828418 29.621645 7.055696 58.217936 28.285207 3.699252 3.667529c3.295046 2.983961 7.739265 4.38282 12.091386 3.885494l29.746488-2.672876 11.066033 0.030699c1.057075 0 2.113127-0.12382 3.170203-0.341784l39.164998-12.340049 29.15604-9.324366 85.447091-13.08604 14.297634-0.839111 65.398476 2.14485 52.001351 11.656481 30.430056 14.422478 11.998265 12.184507 3.356444 4.599761c0.528026 1.616824 1.274016 3.729951 1.771343 4.538363l0.434905 2.020006c0 1.305739 0.186242 2.642177 0.497327 3.885494l0.030699 0.030699-5.252631 14.484899-6.683213 6.962575-18.24555 14.329357-18.805298 10.599406-29.93273 15.043624c-1.150196 0.683569-2.207271 1.52268-3.170203 2.455935-5.967922 6.123464-8.454556 18.587334-2.361791 24.586978l19.395746 20.639063 26.948769 41.526789 17.250896 44.977377c0.373507 0.994654 0.808412 1.958608 1.39886 2.89084l2.921539 5.315052c1.119497 2.424212 2.89084 4.538363 5.066389 6.123464l2.549056 1.833765c4.724605 3.356444 12.30935 3.823072 17.46886 0.994654 2.735297-1.49198 5.688559-4.134157 7.118118-6.931876l34.533514-54.115502 3.699252-2.051729 5.470595 4.009314 10.754948 18.524912 5.501294 21.447475 2.735297 20.327978-1.833765 33.196053-10.288321 50.29243-27.601638 64.21758-23.592324 43.485397-25.332968 36.771485c-0.279363 0.434905-1.52268 2.89084-1.771343 3.325745-1.057075 2.14485-1.647523 4.538363-1.647523 6.962575 0 1.678222 0.279363 4.910846 0.808412 6.495948l9.293667 37.548174-3.357468 18.960841-7.18054 22.254863-16.815991 28.751834c-1.025353 1.585101-1.771343 3.356444-2.14485 5.221932-0.062422 0.311085-0.683569 3.325745-0.715291 3.667529l-8.703219 56.228629-21.354354 68.444858-29.249161 54.768371-55.172577 54.705949L708.398042 725.595095l-38.387285 17.095353L629.664863 754.408327l-70.589708 11.189853-55.54506-0.932232L437.44805 753.289853l-36.429701-11.935843L359.180476 720.155199 333.75541 700.448368l-40.687678-41.837874-35.83823-51.131541-26.669406-61.512982-10.07138-49.981345 0.217964-18.090007c0-3.916193-1.49198-7.739265-4.164856-10.599406l-6.869455-11.159154-5.066389-25.51921 0.093121-4.196579c0-3.201925-0.994654-6.309706-2.828418-8.951883l-8.79634-14.640442-7.366781-26.91807 0.559748-11.189853 2.953262-11.905144c2.051729-6.309706-0.124843-13.20986-5.439896-17.220197l-46.469358-40.408315-23.25054-25.891693L86.272899 226.931844l-20.732184-50.541093-10.102079-47.059805-0.715291-16.193821 0.776689-28.782533 7.92653-30.057573 10.132778 3.388167 23.001877 19.73753 19.240203 29.590945c0.311085 1.865487 1.212618 4.724605 2.175549 6.340405 1.461281 2.455935 4.755304 6.465249 7.30436 7.801686 0.093121 0.062422 2.765997 1.39886 2.860141 1.461281 4.631484 2.237971 10.320043 1.989307 15.043624-0.373507 0.466628-0.186242 0.901533-0.373507 1.305739-0.590448 4.041036-2.082428 7.864108-6.309706 8.889461-10.785647l9.014304-29.186739 28.378327-52.43728 39.009456-39.226397 11.935843-9.386788c2.362814-1.119497 4.41352-2.797719 5.937223-4.910846 1.926886-2.642177 4.445242-7.864108 4.445242-11.127432 0-4.538363-1.958608-9.728572-5.377474-12.681834-1.740644-1.52268-4.164856-2.953262-6.620791-3.792373l0-0.062422c-1.274016-0.434905-4.693906-1.429559-6.030343-1.52268l-38.72907-8.205892-3.232624-1.958608c-1.025353-0.621147-2.082428-1.087774-3.232624-1.461281l-3.170203-1.429559-5.377474-3.418866-3.885494-4.787026c-0.217964-0.248663-2.14485-3.077082-2.393513-3.295046l-4.787026-13.05534 0.062422-4.102435c0-1.057075-0.093121-4.538363-0.341784-5.595438l-0.497327-4.880147c0-1.274016-0.155543-2.549056-0.466628-3.76065L167.555134-111.375232z"  horiz-adv-x="1024" />

    
    <glyph glyph-name="quedingshequ" unicode="&#58956;" d="M899.557214 550.311111c15.385859 24.565657 31.806061 54.690909 42.925253 85.20404 14.99798 41.373737 9.438384 79.385859-14.739394 101.753535-23.272727 21.333333-59.086869 23.919192-95.806061 6.981818-8.662626-4.008081-15.773737-7.369697-23.014141-10.860606-13.575758-6.593939-19.135354-22.884848-12.541414-36.460606 6.593939-13.575758 22.884848-19.135354 36.460606-12.541414 6.723232 3.232323 13.575758 6.464646 21.850505 10.343434 15.644444 7.240404 29.866667 8.145455 36.072727 2.327273 5.559596-5.042424 8.921212-19.393939 0.387879-43.054545-11.636364-32.193939-34.391919-72.662626-62.189899-110.933333-97.228283-133.430303-184.759596-235.442424-267.765657-311.854545-0.129293-0.129293-0.129293-0.129293-0.258586-0.258586C453.496608 129.591919 350.838022 54.860606 268.349134-5.260606l-7.757576-5.559596c-1.034343-0.775758-2.068687-1.422222-3.10303-2.19798C167.888528 61.19596 110.741053 173.292929 110.741053 298.448485c0 223.159596 181.527273 404.686869 404.686869 404.686869 56.888889 0 111.838384-11.507071 163.426263-34.391919 13.705051-6.076768 29.866667 0.129293 35.943434 13.963636 6.076768 13.705051-0.129293 29.866667-13.963636 35.943434C642.393578 744.638384 579.945093 757.69697 515.557214 757.69697c-122.69899 0-238.028283-47.709091-324.654545-134.464646-86.755556-86.755556-134.464646-202.084848-134.464646-324.654545 0-78.480808 19.523232-153.858586 56.371717-220.70303-16.290909-21.591919-38.787879-55.466667-55.466667-97.486869-14.351515-35.943434-9.826263-70.335354 11.894949-92.056566 9.050505-9.050505 26.117172-20.428283 54.044444-20.428283 15.256566 0 33.745455 3.361616 55.983838 12.282828 23.919192 9.567677 50.036364 23.40202 76.412121 39.822222 75.894949-52.363636 165.882828-80.678788 260.137374-80.678788 122.69899 0 238.028283 47.709091 324.654545 134.464646 86.755556 86.755556 134.464646 202.084848 134.464646 324.654545C974.676406 388.565657 948.81782 475.450505 899.557214 550.311111L899.557214 550.311111zM158.70873-69.389899c-28.961616-11.636364-45.640404-9.309091-51.2-3.749495-5.559596 5.559596-5.430303 18.876768 0.258586 33.228283C118.498629-12.888889 132.074386 10.383838 144.098629 28.226263c13.963636-19.135354 29.608081-37.365657 46.674747-54.432323 6.076768-6.076768 12.412121-12.024242 18.876768-17.842424C191.807719-54.391919 174.353174-63.054545 158.70873-69.389899L158.70873-69.389899zM515.557214-106.238384c-77.446465 0-149.850505 21.850505-211.393939 59.733333 83.135354 60.509091 185.793939 135.628283 294.141414 237.769697 83.523232 76.929293 171.183838 178.424242 267.636364 309.915152 35.684848-61.414141 54.30303-130.844444 54.30303-202.731313C920.244083 75.288889 738.71681-106.238384 515.557214-106.238384L515.557214-106.238384zM365.706709 528.977778c0 20.428283 8.40404 40.727273 22.884848 55.078788 14.480808 14.480808 34.779798 22.884848 55.078788 22.884848 20.428283 0 40.727273-8.40404 55.078788-22.884848 14.480808-14.480808 22.884848-34.779798 22.884848-55.078788 0-20.428283-8.40404-40.727273-22.884848-55.078788-14.480808-14.480808-34.779798-22.884848-55.078788-22.884848-20.428283 0-40.727273 8.40404-55.078788 22.884848C374.11075 488.250505 365.706709 508.549495 365.706709 528.977778L365.706709 528.977778zM250.506709 279.183838c0 11.765657 4.783838 23.40202 13.187879 31.676768 8.274747 8.274747 19.911111 13.187879 31.676768 13.187879s23.40202-4.783838 31.676768-13.187879c8.274747-8.274747 13.187879-19.911111 13.187879-31.676768 0-11.765657-4.783838-23.40202-13.187879-31.676768-8.274747-8.274747-19.911111-13.187879-31.676768-13.187879s-23.40202 4.783838-31.676768 13.187879C255.419841 255.781818 250.506709 267.418182 250.506709 279.183838L250.506709 279.183838zM615.500649 63.911111c0 7.628283 3.10303 15.127273 8.533333 20.557576 5.430303 5.30101 12.929293 8.533333 20.557576 8.533333 7.628283 0 15.127273-3.10303 20.557576-8.533333 5.30101-5.30101 8.533333-12.929293 8.533333-20.557576 0-7.628283-3.10303-15.127273-8.533333-20.428283-5.30101-5.430303-12.929293-8.533333-20.557576-8.533333-7.628283 0-15.127273 3.10303-20.557576 8.533333C618.732972 48.783838 615.500649 56.282828 615.500649 63.911111L615.500649 63.911111zM615.500649 63.911111"  horiz-adv-x="1024" />

    
    <glyph glyph-name="iconfonttriangletop" unicode="&#58908;" d="M523.955 514.048l323.744-512c6.24-9.856 6.624-22.336 0.992-32.512-5.632-10.24-16.384-16.576-28.033-16.576l-647.328 0c-11.647 0-22.4 6.336-28.033 16.576-2.656 4.8-3.968 10.112-3.968 15.424 0 5.952 1.664 11.904 4.929 17.088l323.616 512c5.856 9.28 16.064 14.911 27.04 14.912s21.184-5.632 27.04-14.912z"  horiz-adv-x="1024" />

    
    <glyph glyph-name="message1" unicode="&#58902;" d="M104.482133 667.377067c-51.6096 0-93.627733-42.018133-93.627733-93.661867l0-547.498667c0-51.643733 41.984-93.627733 93.627733-93.627733l815.035733 0c51.6096 0 93.627733 41.984 93.627733 93.627733L1013.1456 573.749333c0 51.643733-41.984 93.661867-93.627733 93.661867L104.482133 667.4112zM919.517867 616.177067c11.127467 0 21.060267-4.5056 28.637867-11.537067L512 198.282667 75.844267 604.64c7.5776 7.031467 17.5104 11.537067 28.637867 11.537067L919.517867 616.177067zM961.9456 547.5008 961.9456 86.666667l-247.296 230.434133L961.9456 547.5008zM62.0544 547.5008l247.296-230.4L62.0544 86.666667 62.0544 547.5008zM919.517867-16.177067 104.482133-16.177067c-23.381333 0-42.427733 19.0464-42.427733 42.427733l0 8.157867 8.840533-9.489067 276.036267 257.194667 147.626667-137.5232c4.9152-4.573867 11.195733-6.8608 17.442133-6.8608s12.526933 2.286933 17.442133 6.8608l147.626667 137.557333 276.036267-257.194667 8.840533 9.489067 0-8.157867C961.9456 2.8352 942.8992-16.177067 919.517867-16.177067z"  horiz-adv-x="1024" />

    
    <glyph glyph-name="qianggou" unicode="&#58947;" d="M511.999 710C285.566 710 102 526.437 102 300.002 102 73.563 285.566-110 511.999-110 738.438-110 922 73.563 922 300.002 922 526.437 738.438 710 511.999 710zM512-87.838c-214.196 0-387.836 173.641-387.836 387.838S297.804 687.839 512 687.839s387.836-173.641 387.836-387.838S726.196-87.838 512-87.838zM664.478 439.64c-15.294 18.351-38.744 54.547-53.017 81.056 1.529 2.549 2.039 3.568 4.078 7.137l-32.116 13.254c-27.019-55.567-43.842-83.606-69.331-113.683-25.49-30.587-47.41-47.92-88.194-71.37 9.176-9.176 11.216-12.235 20.902-28.039 54.546 40.783 64.742 49.449 89.722 78.507 24.469 28.548 33.645 42.312 58.116 84.625 3.568-6.118 6.117-11.215 8.157-14.275 4.078-7.136 7.136-12.235 8.157-14.274 10.705-17.843 25.998-38.234 45.37-60.155 26.509-30.587 37.724-39.763 88.703-74.43 5.098 11.215 8.666 15.804 21.922 29.058C714.437 387.641 694.555 403.445 664.478 439.64zM394.292 402.425l19.882 0c14.784 0 22.431-0.51 34.156-2.04l0 32.627c-10.705-1.529-17.843-2.039-34.666-2.039l-19.372 0 0 48.94c0 20.901 1.019 35.175 3.569 50.469l-39.253 0c2.549-17.333 3.568-29.058 3.568-51.488l0-47.92-31.097 0c-14.275 0-24.47 0.51-38.234 3.058l0-33.647c11.215 1.53 23.959 2.04 37.724 2.04l31.606 0 0-112.664c-36.195-12.744-54.547-17.333-73.919-19.882l8.666-35.176c8.667 4.079 14.275 6.118 21.411 8.667 18.862 5.608 34.666 10.705 43.842 14.275l0-135.604c0-11.725-3.568-14.275-18.352-14.275-13.254 0-21.92 0.51-42.822 3.059 4.588-10.705 6.117-18.862 7.136-32.117 23.961-0.51 23.961-0.51 29.058-0.51 45.371 0 57.096 7.137 57.096 35.686L394.291 269.37c33.646 13.254 33.646 13.254 53.018 21.921l1.529 32.117c-23.451-11.216-27.529-13.255-54.547-22.431L394.291 402.425zM691.497 126.119c-10.196-9.176-22.431-10.705-76.468-10.705-86.154 0-89.722 1.019-89.722 20.901L525.307 327.996l131.524 0c0-31.607-1.019-51.488-4.078-71.37-3.569-21.922-7.647-27.019-23.451-27.019-11.725 0-20.901 1.019-40.783 5.097 4.079-13.764 5.098-19.372 5.608-30.587 14.273-2.039 26.509-3.058 35.684-3.058 28.548 0 40.784 5.097 47.41 18.862 5.608 12.744 10.705 50.469 12.236 95.84 0.51 28.039 1.019 31.607 2.039 41.802-12.235-1.529-21.92-2.039-39.253-2.039L527.856 355.524c-15.804 0-24.47 0.51-35.176 2.039 1.019-12.235 1.529-24.469 1.529-40.273l0-190.661c0-36.704 13.255-42.312 101.448-42.312 44.351 0 83.605 2.039 95.33 4.588 13.764 3.059 22.94 8.667 30.077 16.823 10.196 12.744 15.293 32.116 18.352 71.371-11.725 2.549-19.372 5.607-32.627 14.274C704.751 148.551 701.693 135.805 691.497 126.119z"  horiz-adv-x="1024" />

    
    <glyph glyph-name="report" unicode="&#58896;" d="M147.2 160h-96c-32 0-51.2-25.6-51.2-51.2v-211.2c0-32 19.2-57.6 51.2-57.6h96c25.6 0 44.8 25.6 44.8 51.2v217.6c0 25.6-19.2 51.2-44.8 51.2zM128-76.8c0-12.8-12.8-19.2-32-19.2s-32 6.4-32 19.2v153.6c0 12.8 12.8 19.2 32 19.2s32-6.4 32-19.2v-153.6zM403.2 352h-96c-32 0-51.2-25.6-51.2-51.2v-403.2c0-32 19.2-57.6 51.2-57.6h96c25.6 0 51.2 25.6 51.2 51.2v409.6c-6.4 25.6-25.6 51.2-51.2 51.2zM384-76.8c0-12.8-12.8-19.2-32-19.2s-32 6.4-32 19.2v345.6c0 12.8 12.8 19.2 32 19.2s32-6.4 32-19.2v-345.6zM908.8 416h-96c-32 0-51.2-25.6-51.2-51.2v-467.2c0-32 19.2-57.6 51.2-57.6h96c25.6 0 51.2 25.6 51.2 51.2v473.6c-6.4 25.6-25.6 51.2-51.2 51.2zM889.6-76.8c0-12.8-12.8-19.2-32-19.2s-32 6.4-32 19.2v409.6c0 12.8 12.8 19.2 32 19.2s32-6.4 32-19.2v-409.6zM659.2 224h-96c-32 0-51.2-25.6-51.2-51.2v-275.2c0-32 19.2-57.6 51.2-57.6h96c25.6 0 44.8 25.6 44.8 51.2v281.6c0 25.6-19.2 51.2-44.8 51.2zM640-76.8c0-12.8-12.8-19.2-32-19.2s-32 6.4-32 19.2v217.6c0 12.8 12.8 19.2 32 19.2s32-6.4 32-19.2v-217.6zM64 211.2l288 249.6 204.8-140.8c19.2-25.6 44.8-6.4 44.8 0l294.4 313.6v-57.6c0-19.2 12.8-32 32-32s32 12.8 32 32v128c0 19.2-12.8 32-32 32h-128c-19.2 0-32-12.8-32-32s12.8-32 32-32h44.8l-268.8-281.6-204.8 140.8c0 0 0 0 0 0-12.8 12.8-32 12.8-44.8 0l-307.2-268.8c-12.8-12.8-12.8-38.4 0-51.2 12.8-6.4 32-6.4 44.8 0z"  horiz-adv-x="1024" />

    
    <glyph glyph-name="jiantou" unicode="&#58885;" d="M352 300l384 384c12.8 12.8 12.8 32 0 44.8-12.8 12.8-32 12.8-44.8 0L288 325.6C281.6 319.2 275.2 306.4 275.2 300c0-6.4 0-19.2 6.4-25.6l409.6-409.6c12.8-12.8 32-12.8 44.8 0s12.8 32 0 44.8L352 300z"  horiz-adv-x="1024" />

    
    <glyph glyph-name="remove" unicode="&#58893;" d="M547.160289 300 952.293353 705.145343c4.516874 4.480035 7.284917 10.69662 7.284917 17.569144 0 13.719466-11.120268 24.865317-24.865317 24.865317-6.846942 0-13.065574-2.792603-17.5804-7.309476L511.998465 335.149545 106.865401 740.270329c-4.492314 4.516874-10.708899 7.309476-17.5804 7.309476-13.745049 0-24.866341-11.145851-24.866341-24.865317 0-6.872524 2.768043-13.08911 7.284917-17.60496l405.133064-405.109528L71.7046-105.158646c-4.516874-4.467755-7.284917-10.683317-7.284917-17.555841 0-13.768585 11.121292-24.865317 24.866341-24.865317 6.871501 0 13.088086 2.792603 17.5804 7.309476l405.133064 405.109528 405.13511-405.109528c4.514827-4.516874 10.732435-7.309476 17.5804-7.309476 13.745049 0 24.865317 11.096732 24.865317 24.865317 0 6.872524-2.768043 13.088086-7.284917 17.555841L547.160289 300z"  horiz-adv-x="1024" />

    
    <glyph glyph-name="yaoqingma" unicode="&#58951;" d="M438.4 323.392c8.448-14.08 14.016-25.312 16.864-33.696L248.704 289.696l0-59.008 109.6 0c5.6-112.416-26.72-195.328-96.96-248.704 5.6-2.816 16.896-14.08 33.728-33.696 8.448-8.448 14.048-14.08 16.864-16.832 53.344 56.096 87.072 117.984 101.152 185.44l143.328 0c0-28.128-2.816-52.064-8.48-71.648-2.816-31.008-21.056-46.4-54.752-46.4-16.864 0-45.024 1.408-84.32 4.192 5.6-19.648 8.416-42.048 8.416-67.36 19.648-2.816 46.4-4.192 80.128-4.192 78.624-5.728 119.424 30.88 122.24 109.632 5.6 61.76 8.48 103.872 8.48 126.4l-206.592 0c0 22.464 1.376 43.488 4.224 63.232l248.672 0 0 59.008-198.112 0 37.952 12.64c-8.416 25.312-19.712 49.152-33.728 71.68l147.584 0L628.128 685.92l-147.584 0c2.752 5.6 5.6 15.424 8.448 29.504 11.2 25.28 19.616 44.928 25.28 59.008l-75.872 12.64c-11.264-36.544-18.304-61.856-21.088-75.872-2.816-11.264-5.632-19.712-8.416-25.312L299.264 685.888l0-311.904 160.16 0-37.92-16.896C427.136 351.488 432.736 340.288 438.4 323.392L438.4 323.392zM703.968 293.92c36.448-53.376 64.608-95.552 84.288-126.432-33.728-59.04-88.512-122.24-164.416-189.696 16.864-25.312 32.32-47.84 46.368-67.456 67.424 67.456 120.8 132.096 160.192 193.92 5.6-11.264 15.424-26.72 29.504-46.336 36.48-59.072 60.384-98.368 71.648-118.016l67.456 46.336c-19.68 28.032-63.232 92.736-130.688 193.92 36.512 84.352 59.008 205.088 67.456 362.528l80.064 0L1015.84 605.824l-223.36 0c16.8 47.744 32.224 102.56 46.336 164.416L767.168 778.656c-25.28-132.128-68.864-251.52-130.656-358.304 8.416-5.632 25.248-21.056 50.56-46.336 33.728 53.344 60.384 109.568 80.096 168.608l96.928 0c0-120.864-14.112-219.2-42.144-295.072-5.632 8.48-15.424 21.088-29.472 37.952-28.128 42.144-49.184 71.648-63.232 88.544l-50.592-42.144C684.256 323.392 692.704 310.752 703.968 293.92L703.968 293.92zM206.56 3.008 206.56 416.128 16.864 416.128l0-71.616 118.016 0 0-345.696c-44.96-39.328-89.952-82.912-134.88-130.624l50.592-71.648c28.064 44.96 67.456 91.328 118.016 139.104 59.008-78.656 141.888-118.048 248.672-118.048 73.088-2.72 182.656-4.192 328.832-4.192 126.432-2.752 209.312-2.752 248.672 0 14.016 30.944 23.84 56.256 29.504 75.84-5.664 0-35.2 0-88.512 0-269.792-5.568-439.872-6.944-510.048-4.192C324.576-114.976 251.456-75.648 206.56 3.008L206.56 3.008zM63.232 715.424c47.744-84.32 82.848-148.96 105.376-193.888C191.072 538.4 214.976 552.448 240.288 563.68 192.448 642.336 154.496 704.16 126.464 749.152L63.232 715.424zM564.832 504.672l0-75.904-202.304 0L362.528 504.672 564.832 504.672zM564.832 631.104l0-75.84-202.304 0 0 75.84L564.832 631.104z"  horiz-adv-x="1026" />

    
    </font>
</defs>
</svg>
